<?xml version="1.0" encoding="UTF-8" standalone="no"?>
<svg width="87px" height="111px" viewBox="0 0 87 111" version="1.1" xmlns="http://www.w3.org/2000/svg" xmlns:xlink="http://www.w3.org/1999/xlink">
    <!-- Generator: Sketch 3.8.2 (29753) - http://www.bohemiancoding.com/sketch -->
    <title>Group 2</title>
    <desc>Created with Sketch.</desc>
    <defs>
        <polygon id="path-1" points="3.21493287e-05 102.321956 86.9309381 102.321956 86.9309381 0.0935381354 3.21493287e-05 0.0935381354 3.21493287e-05 102.321956"></polygon>
        <polygon id="path-3" points="4.11792269 0.0545108038 0.00270386876 0.0545108038 0.00270386876 8.2670121 4.11792269 8.2670121 4.11792269 0.0545108038"></polygon>
    </defs>
    <g id="Design" stroke="none" stroke-width="1" fill="none" fill-rule="evenodd">
        <g id="Start" transform="translate(-136.000000, -216.000000)">
            <g id="Group-5" transform="translate(37.000000, 78.000000)">
                <g id="Group-2" transform="translate(99.000000, 138.000000)">
                    <g id="Page-1">
                        <g id="Group-3" transform="translate(0.000000, 7.917770)">
                            <mask id="mask-2" fill="white">
                                <use xlink:href="#path-1"></use>
                            </mask>
                            <g id="Clip-2"></g>
                            <path d="M48.5778103,37.6255235 C49.1306041,37.3920734 49.6065629,37.2195364 50.0517278,36.9875866 C50.2164598,36.9017682 50.388666,36.6893226 50.4200577,36.5104842 C50.6308309,35.3153278 50.7704495,34.1072685 51.0018515,32.9169131 C51.1510371,32.1496485 51.4171196,31.4054888 51.6673567,30.5217992 C49.9799753,32.6732608 49.0941299,35.0188641 48.5778103,37.6255235 M66.7297175,26.6077593 C65.3066247,24.8385797 61.7919443,24.4286918 60.112934,25.413203 C61.6254186,25.9317143 62.9148722,26.7658933 63.9929546,27.9379448 C64.1032742,28.0576705 64.444099,28.1176833 64.5762433,28.0372661 C65.3117072,27.5898701 66.0157794,27.0902629 66.7297175,26.6077593 M41.582532,41.3298183 C42.1804701,40.9745421 42.7054598,40.6039626 43.2788825,40.3387056 C43.843934,40.0776496 44.4580165,39.9231165 45.0547588,39.720573 C43.0181814,36.7361326 38.9417381,35.4818635 36.5045423,37.8679755 C38.5345423,38.5389195 40.1947175,39.7502794 41.582532,41.3298183 M61.8086866,30.2799473 C60.7625938,28.8168333 59.358934,27.9268424 57.7047381,27.63608 C57.3516557,27.5739667 57.1005216,27.6354799 56.8661299,27.9520478 C55.8902948,29.2699306 55.1697794,30.7147406 54.6944186,32.2792763 C54.4157794,33.1962731 54.1987278,34.1321739 53.9538722,35.0596729 C53.9996144,35.0857785 54.0453567,35.1118841 54.0908,35.1379897 C56.7961711,33.7336884 59.4578928,32.2588719 61.8086866,30.2799473 M28.7531711,44.7154448 C28.6820165,44.8231679 28.6072742,44.9290906 28.5397072,45.0392143 C26.9922433,47.5645561 26.1954907,50.3398516 25.8950268,53.2627788 C25.5422433,56.6922147 25.9676763,60.0574368 26.9300577,63.3503433 C28.7648309,69.6282904 32.0534907,75.0855614 36.3493773,79.962808 C36.5580577,80.1995588 36.7798928,80.4249071 37.0328206,80.6952651 C37.0660062,80.5683379 37.0881299,80.5245285 37.087532,80.4810191 C37.0654082,78.770052 37.0456763,77.0590849 37.0092021,75.3484178 C37.0062124,75.2016863 36.9183155,75.0363509 36.8244392,74.9151249 C33.7686763,70.9710786 31.5003979,66.6093426 29.9607072,61.8641244 C29.015367,58.9504993 28.3229546,55.9780614 28.1689856,52.9102032 C28.0308619,50.1631137 28.1393876,47.4238259 28.7531711,44.7154448 M36.884233,69.2883175 C36.9491093,69.2646124 37.0139856,69.2409073 37.0788619,69.2172022 C37.1213155,67.8426073 37.1168309,66.4644115 37.2148928,65.0937174 C37.512666,60.930024 37.8065526,56.7648303 38.1883361,52.6083384 C38.4331918,49.9431665 38.914233,47.3089013 39.6912536,44.7376495 C39.7337072,44.5969193 39.6819856,44.3778723 39.5928928,44.2548459 C38.4864082,42.7296187 37.0678,41.6460862 35.2061196,41.2184944 C33.8795938,40.9139291 33.7866144,40.9523373 33.2625216,42.1910031 C31.5323876,46.2808807 31.2238515,50.5501968 31.7288103,54.9098322 C32.118666,58.2771548 33.0323155,61.5082481 34.4563052,64.5782068 C35.1992433,66.1793504 36.0707381,67.720181 36.884233,69.2883175 M45.7423876,35.2943233 C45.806367,35.0935802 45.874233,34.7911153 45.9986041,34.5141558 C46.1211814,34.2416974 46.0838103,34.0388539 45.9199753,33.7922009 C41.4243773,27.0176473 36.8157691,20.3244111 31.7045938,13.9960532 C29.3298825,11.0557223 26.8816247,8.17960513 23.9998619,5.71397607 C22.8225216,4.70665993 21.5680474,3.81696902 20.0648309,3.35697032 C18.120934,2.76194264 16.8192227,3.48419762 16.3172536,5.45742102 C15.9025835,7.08857102 16.1399649,8.68731407 16.6541918,10.2566508 C16.700532,10.3979811 16.844934,10.518307 16.9666144,10.6215291 C18.4052536,11.8427912 19.8642227,13.0403481 21.2870165,14.279614 C27.8730062,20.0153448 34.2380577,25.9926273 40.5558722,32.0221211 C41.0647175,32.5076253 41.5451608,33.0597438 42.1383155,33.4120194 C43.2977175,34.100067 44.5273773,34.668689 45.7423876,35.2943233 M51.1151608,40.2594886 C51.3130784,40.3414062 51.4559856,40.4023193 51.6003876,40.4602317 C53.0285629,41.0324545 54.3556866,41.7694126 55.424501,42.9027558 C56.4514598,43.9919895 57.1564289,45.2963694 57.7498825,46.6517603 C58.6115113,48.6198826 59.3852433,50.6264131 60.2423876,52.5963358 C60.8421196,53.9751317 61.6071814,55.2654085 62.7797381,56.2442186 C64.1804082,57.4138695 65.8570268,57.9461838 67.6218412,58.240847 C68.6431196,58.4112836 69.644666,58.3581722 70.6028619,57.9155772 C70.8522021,57.8006525 70.9439856,57.6710247 70.8904701,57.3493557 C70.7400887,56.4449616 70.5864186,55.5297653 70.572666,54.6166693 C70.5320062,51.9574987 72.0262536,50.0781955 74.6024701,49.460663 C76.1035938,49.1008858 77.4088928,49.4570622 78.412233,50.6558194 C78.8804186,51.2154395 79.2523361,51.856077 79.6732845,52.4676082 C79.6873361,52.4553056 79.7285938,52.4310003 79.7528103,52.3949926 C79.8433979,52.2584633 79.9360784,52.1222341 80.0150062,51.9785032 C81.5654598,49.1542972 82.0267691,46.1299483 81.341233,43.0098788 C80.3202536,38.3636819 78.0914392,34.3362177 74.7411918,30.9517915 C74.5256351,30.7339447 74.2858619,30.5278005 74.0248619,30.3702667 C73.3707175,29.9750819 72.6436247,29.6810188 72.0471814,29.215919 C71.3927381,28.7055095 70.679099,28.5143684 69.905367,28.5305719 C69.5821814,28.5374734 69.238666,28.7292145 68.948068,28.908353 C68.2945216,29.3104393 67.6714701,29.7623362 67.0292845,30.1833266 C66.744367,30.3699666 66.4146041,30.4956936 66.1539031,30.7087393 C64.8961402,31.73736 63.6936866,32.8379962 62.3994495,33.8168062 C59.7894495,35.7906297 56.9381814,37.37617 54.0289134,38.8557874 C53.0892536,39.33349 52.1295629,39.7721841 51.1151608,40.2594886 M37.5494392,33.237982 C37.4779856,33.1956729 37.396367,33.1647663 37.3365732,33.1098545 C31.3416454,27.6009725 25.3996351,22.0326776 19.3329546,16.604813 C16.4748103,14.0479643 13.3969237,11.7356682 10.377934,9.36455939 C9.27234639,8.49617306 8.0678,7.74601209 6.66563505,7.40573908 C5.03685155,7.01025422 3.88342887,7.61098312 3.35096495,9.19352269 C3.18533608,9.68532822 3.08219175,10.2152419 3.05259381,10.7334531 C2.90759381,13.2710976 3.73962474,15.5149791 5.18364536,17.5566172 C6.43662474,19.3284974 8.12520206,20.5797659 10.0131918,21.5888824 C10.2356247,21.708008 10.4493876,21.8439371 10.6894598,21.9852675 C10.551934,22.1614053 10.465532,22.2805308 10.3704598,22.3924548 C9.05110928,23.9473885 7.97123299,25.6400517 7.42920206,27.631579 C6.94397526,29.4139615 7.05190309,31.0931218 8.40473814,32.5028243 C9.27443918,33.4090187 10.3653773,33.9719395 11.5205938,34.4175351 C12.2025423,34.6806916 12.8901711,34.9285448 13.5634495,35.1790985 C13.558367,35.2562151 13.5676351,35.2952234 13.5523876,35.3177283 C13.4785423,35.4260515 13.4008103,35.5319742 13.3194907,35.6348963 C12.5460577,36.6155067 11.7765113,37.5988177 11.3582536,38.8008757 C10.5845216,41.025253 10.9797588,42.7836303 12.8354598,44.1885317 C13.2259134,44.4840951 13.6465629,44.7487519 14.0794701,44.977401 C16.3647897,46.1833598 18.817233,46.944023 21.2828309,47.6659779 C22.0311505,47.8850249 22.7857485,48.0824673 23.5600784,48.2961131 C23.5995423,48.1643848 23.6219649,48.0887686 23.6446866,48.0131524 C24.1230371,46.4228111 24.6949649,44.8723785 25.5500165,43.4398711 C27.0170577,40.9817436 28.8787381,38.9689117 31.6382227,37.9528937 C31.7766454,37.9018828 31.8869649,37.753651 31.9910062,37.6339253 C32.5186866,37.0280953 33.0072021,36.3841571 33.5704598,35.8140348 C34.6784392,34.6923941 35.9903155,33.8720181 37.5494392,33.237982 M22.9298515,51.3708729 C20.4833876,50.5808033 18.0943258,49.8486462 15.733666,49.0333713 C14.1075732,48.4719508 12.5376866,47.7565973 11.1391093,46.7276766 C8.02145979,44.4339844 7.13411959,41.0042485 8.68666598,37.3101558 C8.77545979,37.0995106 8.87053196,36.8912659 8.97636701,36.6509143 C8.55482062,36.3913586 8.12998557,36.1519073 7.72787216,35.8788487 C5.32595464,34.2461983 4.03141856,32.0104186 4.14951134,29.057485 C4.23083093,27.0290497 4.94925361,25.1842539 5.92478969,23.4303776 C6.02673814,23.2467381 6.13107835,23.0645991 6.19386186,22.9535752 C5.27243918,22.0524819 4.32709897,21.2549108 3.53214021,20.3274117 C1.20825361,17.6148297 -0.0677463918,14.4743558 0.00281030928,10.8561795 C0.0348,9.21392707 0.441995876,7.66349439 1.4635732,6.34111064 C2.94586186,4.42309908 5.22699588,3.79686471 7.79723299,4.5518267 C9.4104701,5.02592843 10.7949959,5.92642166 12.1550062,6.87612544 C12.4345423,7.07116729 12.7128825,7.26830959 13.0384598,7.49695865 C13.0898825,6.8503199 13.1018412,6.24989107 13.1906351,5.66116474 C13.4967794,3.62522788 14.3028,1.87105148 16.1611918,0.801021879 C17.8512639,-0.17238699 19.6202639,-0.0382582092 21.3838825,0.582575006 C23.2871196,1.25231872 24.8833155,2.42617059 26.3730784,3.7548557 C29.5843052,6.61927032 32.3449856,9.89987426 35.0123876,13.2614956 C39.3438515,18.7196668 43.3261196,24.4319925 47.1941814,30.2265358 C47.3182536,30.4125758 47.4465113,30.5962152 47.585233,30.7987586 C48.039068,30.1590213 48.4417794,29.5414888 48.8941196,28.9626646 C50.3396351,27.1133678 52.1403258,25.7846827 54.4367072,25.1725514 C54.7048825,25.1011361 54.9452536,24.8418804 55.1497485,24.6237336 C56.671501,22.9976847 58.4727897,21.8841458 60.6812742,21.4616551 C64.3403567,20.761905 68.1874907,22.3768515 70.2713052,25.4960208 C70.3825216,25.6622565 70.5974804,25.832393 70.785532,25.8620993 C73.4030062,26.2755881 75.5325629,27.6165758 77.3691299,29.4370664 C81.1513876,33.1860709 83.6349237,37.6957385 84.6648722,42.9216599 C85.4900268,47.1105587 84.7279546,51.0693082 82.2375423,54.6037666 C81.8557588,55.1456828 81.3624598,55.6344877 80.8410577,56.0461761 C79.5850887,57.0378889 78.2038515,56.7861348 77.3535835,55.4283435 C76.9900371,54.8477189 76.739501,54.1968793 76.4052536,53.5961504 C76.1849134,53.1997653 76.0584495,52.6407453 75.4336041,52.70886 C74.7169753,52.7871768 73.9348722,53.4287144 73.9309856,54.0663512 C73.9259031,54.9440396 74.0694082,55.8229282 74.1605938,56.7003164 C74.1892948,56.9769758 74.2616454,57.2488341 74.3014082,57.5245933 C74.5369959,59.154543 73.5746144,60.0751406 72.3249237,60.7775913 C70.7484598,61.6630813 69.0302845,61.847921 67.2729443,61.5814638 C64.811233,61.2081837 62.5008,60.4205147 60.5688619,58.7725611 C59.039934,57.4684813 57.9956351,55.7953222 57.1952948,53.9760319 C56.3037691,51.9499971 55.4567897,49.903258 54.6310371,47.8493172 C53.0459031,43.9046708 49.6594804,42.9048563 46.5543876,42.9441647 C45.980367,42.9513663 45.3916969,43.1293044 44.8403979,43.3186451 C43.9916247,43.6106077 43.3428619,44.1999342 43.1051814,45.0740217 C42.6366969,46.7963913 42.1410062,48.5226617 41.8462227,50.2792386 C41.0040268,55.2975154 40.6608103,60.3692037 40.5427175,65.4513942 C40.4335938,70.1393001 40.3818722,74.8293064 40.3761918,79.5184126 C40.3738,81.5711531 40.4691711,83.6319953 40.6646969,85.6754337 C40.8742742,87.8617029 41.7436763,89.8595315 42.8035216,91.7643403 C44.1551608,94.1930614 45.8383567,96.3352211 48.2178515,97.8412442 C50.1130165,99.0409016 52.0853155,99.3556692 54.1840784,98.3498533 C55.4971505,97.7209184 56.8532742,97.1823028 58.1651505,96.5515675 C63.0739237,94.1918611 67.6780474,91.3412495 71.8743773,87.8509005 C75.1448,85.1308169 78.0884495,82.102267 80.5510577,78.6104178 C81.9959753,76.560978 82.7661196,74.2690862 83.1637485,71.8286626 C83.728501,68.363519 83.6725938,64.8806717 83.380501,61.3972243 C83.2375938,59.6937587 83.0489443,57.9941941 82.8842124,56.292829 C82.8229237,55.659093 82.8166454,55.0415605 83.3344598,54.5515554 C83.8068309,54.1047595 84.3632124,53.9646294 84.9689237,54.1356661 C85.5773258,54.307603 86.0278722,54.7186912 86.1169649,55.3599288 C86.3115938,56.758829 86.4927691,58.1625302 86.5992021,59.5704323 C86.7504804,61.5697613 86.899068,63.5738913 86.9253773,65.5777213 C86.9839753,70.0306768 86.6084701,74.4260199 84.5342227,78.4774892 C83.4725835,80.5512342 82.0019546,82.3522207 80.4784082,84.0994956 C75.2291093,90.1205876 68.9130887,94.759583 61.8699753,98.4284702 C59.8256247,99.4933987 57.6999546,100.400793 55.6134495,101.384404 C52.2099856,102.988849 49.0074289,102.452934 45.9971093,100.396292 C43.1111608,98.4245694 41.0524598,95.7323917 39.5109753,92.6141226 C38.5832742,90.7372199 37.735099,88.8126069 37.4998103,86.7274595 C37.3625835,85.5100983 36.5156041,84.9792844 35.7995732,84.2903365 C29.634532,78.3589638 25.2648,71.3884681 23.4195629,62.9335539 C22.6123464,59.2355604 22.4066557,55.5171625 22.9101196,51.7621568 C22.9295526,51.6169257 22.925367,51.4686939 22.9298515,51.3708729" id="Fill-1" fill="#221F20" mask="url(#mask-2)"></path>
                        </g>
                        <path d="M54.6245531,21.3733517 C55.1214057,21.3073815 56.0456357,21.243473 56.9424967,21.0549868 C59.5124756,20.5142673 61.8550813,19.5026269 63.7327148,17.6392649 C64.1101663,17.2646488 64.4470155,16.8299526 64.712585,16.3728738 C65.6067392,14.8322943 65.2010163,13.6094906 63.5697038,12.838759 C62.5275766,12.346339 61.4084553,12.1569694 60.2640703,12.1493121 C57.5166441,12.1316416 54.9635076,12.8390535 52.6064656,14.2135297 C51.4058388,14.9135789 50.3339365,15.763239 49.5814395,16.9412773 C48.528485,18.5893528 48.9621783,19.9544046 50.7778556,20.7422177 C50.8229694,20.7616553 50.8707899,20.7749082 50.9165052,20.7934624 C51.9685574,21.2190287 53.0735431,21.3492019 54.6245531,21.3733517 M54.7286155,24.3614457 C52.5670662,24.3791163 50.9802659,24.1455702 49.4851969,23.4843962 C45.9097833,21.9034689 44.8851,18.4412145 47.0319121,15.2272316 C48.3453232,13.2616748 50.2088211,11.9278409 52.3258581,10.9200292 C54.9265144,9.6816165 57.6781512,9.04989349 60.582874,9.14531459 C62.1107257,9.19538121 63.5907569,9.47280922 64.9706356,10.1445855 C68.2684493,11.7502517 69.2143339,15.0543545 67.2639169,18.1181375 C66.1619388,19.8492647 64.6040113,21.0932731 62.8241242,22.0934276 C60.233393,23.5494828 57.1115228,24.3614457 54.7286155,24.3614457" id="Fill-4" fill="#221F20"></path>
                        <path d="M74.4901676,78.3315869 C75.6937634,77.8709565 76.7120118,77.3803762 77.0423252,76.0613801 C77.6404916,73.6755665 77.8766788,71.2559095 77.7032424,68.794622 C77.6744816,68.3879015 77.6352624,67.9629116 77.716025,67.5714657 C77.8702875,66.8263108 78.558513,66.3596904 79.3289537,66.3887419 C80.0790585,66.4171943 80.7478197,66.9053786 80.8137661,67.6613156 C80.9250326,68.9317928 80.9822637,70.2148489 80.9488547,71.4895191 C80.8968529,73.4772978 80.6516598,75.4483045 80.0471021,77.3492283 C79.2943826,79.7155744 76.7352528,81.6326712 74.3913932,81.6138027 C72.6076428,81.5997262 71.24717,80.2486837 71.2927805,78.3989743 C71.3238654,77.1413756 71.5463985,75.8894674 71.646916,74.6321681 C71.7329079,73.5539697 71.7782279,72.4718777 71.8206428,71.3909838 C71.8502752,70.6338488 72.2375291,70.0234687 72.8801441,69.7937525 C73.532346,69.5607419 74.2743164,69.7341521 74.6801632,70.3271613 C74.8954334,70.6416358 75.0700318,71.0821997 75.0508579,71.4544777 C74.9584747,73.2376981 74.7963684,75.0170251 74.6525645,76.7975501 C74.6145072,77.2689624 74.55379,77.7385777 74.4901676,78.3315869" id="Fill-6" fill="#221F20"></path>
                        <path d="M39.770734,9.1358889 C40.2730148,9.25494439 40.9717618,9.41934111 41.6696076,9.5865195 C43.0689041,9.92143261 44.4688014,10.2538422 45.8662955,10.594875 C46.7948539,10.821303 47.2908261,11.5501006 47.0748334,12.3478837 C46.8678529,13.1131212 46.0525479,13.5562413 45.1471207,13.3478942 C43.1710425,12.8930911 41.1985692,12.4235451 39.2303015,11.9400908 C38.3837542,11.7323 37.9568756,11.0902905 38.0848491,10.3097538 C38.1959997,9.63325156 38.8127356,9.14367757 39.770734,9.1358889" id="Fill-8" fill="#221F20"></path>
                        <path d="M70.0833333,12.830956 C70.0893466,12.4503603 70.3040204,11.9439401 70.832587,11.655137 C72.6636282,10.6547854 74.4970747,9.65786829 76.3455544,8.6921731 C77.10473,8.29565422 77.9949948,8.64315462 78.3714256,9.40559486 C78.7445491,10.1611663 78.4910897,11.1193682 77.7409341,11.5308736 C75.9255274,12.5268541 74.1023034,13.507848 72.2619416,14.4520001 C71.2435941,14.9746557 70.0974645,14.2112788 70.0833333,12.830956" id="Fill-10" fill="#221F20"></path>
                        <g id="Group-14" transform="translate(51.958333, 0.000000)">
                            <mask id="mask-4" fill="white">
                                <use xlink:href="#path-3"></use>
                            </mask>
                            <g id="Clip-13"></g>
                            <path d="M4.1176375,6.59949206 C4.123075,7.47440569 3.57781458,8.13310328 2.81324167,8.24973813 C2.07615833,8.36210956 1.29648125,7.9174963 1.12791875,7.17048512 C0.724939583,5.38715961 0.353377083,3.59530726 0.0274291667,1.79614621 C-0.1272375,0.942854187 0.460616667,0.235431857 1.31823125,0.077380979 C2.07102292,-0.0614845323 2.85039792,0.441902946 3.02862708,1.24768835 C3.40592917,2.95214069 3.74939792,4.66451079 4.10374167,6.37414014 C4.12398125,6.47098056 4.11612708,6.57330251 4.1176375,6.59949206" id="Fill-12" fill="#221F20" mask="url(#mask-4)"></path>
                        </g>
                        <path d="M64.4030142,7.91776387 C63.313589,7.92080315 62.5223223,6.85857468 62.9526603,5.85226896 C63.5197046,4.52653488 64.1612885,3.23058575 64.8255059,1.95044088 C65.1948844,1.23894535 66.1056559,1.02893108 66.8175545,1.39516436 C67.522814,1.75805443 67.8728786,2.60510186 67.5394119,3.34881376 C66.9624089,4.63564505 66.3458727,5.90545637 65.7112297,7.16463021 C65.4535097,7.67553323 64.9769994,7.9104696 64.4030142,7.91776387" id="Fill-15" fill="#221F20"></path>
                        <path d="M43.6838473,20.0991606 C44.5055377,20.0873002 45.131369,20.5909321 45.2883624,21.3644597 C45.4224035,22.0257477 44.9866168,22.7738189 44.2683645,22.9673454 C43.1938933,23.256912 42.107487,23.5161045 41.0134299,23.7298805 C40.2517213,23.878569 39.4529832,23.2988573 39.3042526,22.5782674 C39.1386904,21.7752335 39.5986534,21.0511723 40.4540071,20.8290073 C41.3867865,20.5868822 42.3284406,20.3745526 43.2676466,20.1547019 C43.4127048,20.1205671 43.5654137,20.114203 43.6838473,20.0991606" id="Fill-17" fill="#221F20"></path>
                        <path d="M30.2083333,59.6878075 C33.525613,60.49997 35.2900977,60.7340212 39.2708333,60.905926" id="Stroke-19" stroke="#221F20" stroke-width="3" stroke-linecap="round"></path>
                    </g>
                </g>
            </g>
        </g>
    </g>
</svg>