<?xml version="1.0" encoding="UTF-8" standalone="no"?>
<svg width="28px" height="28px" viewBox="0 0 28 28" version="1.1" xmlns="http://www.w3.org/2000/svg" xmlns:xlink="http://www.w3.org/1999/xlink">
    <!-- Generator: sketchtool 3.8.1 (29687) - http://www.bohemiancoding.com/sketch -->
    <title>E200AD91-12F6-4FD4-A508-B06BB6269748</title>
    <desc>Created with sketchtool.</desc>
    <defs></defs>
    <g id="Design" stroke="none" stroke-width="1" fill="none" fill-rule="evenodd">
        <g id="main_chalanges_watch" transform="translate(-117.000000, -405.000000)" fill="#FFFFFF">
            <g id="add_watchlist" transform="translate(117.000000, 405.000000)">
                <g id="icon">
                    <g id="Group">
                        <path d="M9.04489132,16.9356559 L16.0336373,16.9356559 C16.4070457,16.9356559 16.7088785,16.6338232 16.7088785,16.2604148 C16.7088785,15.8870064 16.4070457,15.5851736 16.0336373,15.5851736 L9.04489132,15.5851736 C8.6721582,15.5851736 8.36965016,15.8870064 8.36965016,16.2604148 C8.36965016,16.6338232 8.6721582,16.9356559 9.04489132,16.9356559" id="Fill-1"></path>
                        <path d="M14.796573,18.8209248 C14.796573,18.4475164 14.4947402,18.1456836 14.1213318,18.1456836 L9.04486881,18.1456836 C8.67213569,18.1456836 8.36962765,18.4475164 8.36962765,18.8209248 C8.36962765,19.1943331 8.67213569,19.4961659 9.04486881,19.4961659 L14.1213318,19.4961659 C14.494065,19.4961659 14.796573,19.1943331 14.796573,18.8209248" id="Fill-3"></path>
                        <path d="M6.77135884,15.7830418 L4.84354534,17.7115305 L4.08254855,16.9505338 C3.81848424,16.6864695 3.39177685,16.6864695 3.12775756,16.9505338 C2.86369325,17.2145531 2.86369325,17.6412605 3.12775756,17.9053248 L4.36610482,19.143672 C4.49309518,19.2706624 4.66456141,19.3415627 4.84354534,19.3415627 C5.02243923,19.3415627 5.19467074,19.2706624 5.32089582,19.143672 L7.72682508,16.7378328 C7.99084437,16.4738135 7.99084437,16.0470161 7.72682508,15.7830418 C7.46276077,15.5190225 7.03533312,15.5190225 6.77135884,15.7830418" id="Fill-5"></path>
                        <path d="M9.04489132,8.64977621 L16.0336373,8.64977621 C16.4070457,8.64977621 16.7088785,8.34726817 16.7088785,7.97453505 C16.7088785,7.60180193 16.4070457,7.29929389 16.0336373,7.29929389 L9.04489132,7.29929389 C8.6721582,7.29929389 8.36965016,7.60180193 8.36965016,7.97453505 C8.36965016,8.34726817 8.6721582,8.64977621 9.04489132,8.64977621" id="Fill-7"></path>
                        <path d="M9.04489132,11.2102817 L14.1213543,11.2102817 C14.4947177,11.2102817 14.7965955,10.9077736 14.7965955,10.5350405 C14.7965955,10.1623074 14.4947177,9.85979936 14.1213543,9.85979936 L9.04489132,9.85979936 C8.6721582,9.85979936 8.36965016,10.1623074 8.36965016,10.5350405 C8.36965016,10.9077736 8.6721582,11.2102817 9.04489132,11.2102817" id="Fill-9"></path>
                        <path d="M3.74626945,10.8578238 C3.87794148,10.9894958 4.05080322,11.0556695 4.22361994,11.0556695 C4.39648167,11.0556695 4.56938842,10.9894958 4.70106045,10.8578238 L5.42622444,10.1326148 L6.15147846,10.8578238 C6.28310547,10.9894958 6.4559672,11.0556695 6.62887395,11.0556695 C6.80173569,11.0556695 6.97459743,10.9894958 7.10626945,10.8578238 C7.37028875,10.5938045 7.37028875,10.1670521 7.10626945,9.9030328 L6.38101543,9.17782379 L7.10626945,8.45193955 C7.37028875,8.18792026 7.37028875,7.7604926 7.10626945,7.49714855 C6.84220514,7.23312926 6.41549775,7.23312926 6.15147846,7.49714855 L5.42622444,8.2230328 L4.70106045,7.49782379 C4.43704116,7.2338045 4.01028875,7.2338045 3.74626945,7.49782379 C3.48225016,7.76184309 3.48225016,8.1885955 3.74626945,8.45261479 L4.47143344,9.17782379 L3.74626945,9.9030328 C3.48288039,10.1670521 3.48288039,10.5944797 3.74626945,10.8578238" id="Fill-11"></path>
                        <path d="M24.8225852,14.2535936 L23.5720386,13.0043974 L24.4119936,12.1643974 L25.66191,13.4142688 L24.8225852,14.2535936 Z M18.2882765,26.6375614 L1.35048232,26.6375614 L1.35048232,2.83999228 L2.45184566,1.7393492 L3.82389068,3.11076399 C4.08795498,3.37410804 4.51538264,3.37410804 4.77868167,3.11076399 L6.13190997,1.75758071 L7.53974277,3.16478328 C7.80376206,3.42880257 8.23055949,3.42880257 8.49453376,3.16478328 L9.9388746,1.72044244 L11.2009003,2.98381865 C11.3278907,3.11076399 11.4993569,3.18166431 11.6789711,3.18166431 C11.85791,3.18166431 12.0300965,3.11076399 12.1563666,2.98381865 L13.4657042,1.67520129 L14.873537,3.0830791 C15.1267524,3.33629453 15.5751125,3.33629453 15.828328,3.0830791 L17.2220257,1.68870611 L18.2875563,2.75423666 L18.2875563,16.379928 L12.8694662,21.798108 C12.7856913,21.8817929 12.7255949,21.9858251 12.6945338,22.1005711 L11.8869904,25.1128219 C11.8241479,25.3457801 11.8909968,25.5942688 12.0618328,25.7651498 C12.1901286,25.8934006 12.3623151,25.9629505 12.5392733,25.9629505 C12.5973441,25.9629505 12.656045,25.9555228 12.7141608,25.9399923 L15.7264116,25.1324039 C15.8411576,25.102018 15.9451897,25.0412913 16.0288746,24.9575164 L18.2882765,22.6981595 L18.2882765,26.6375614 Z M18.4867524,20.5900566 C18.4860772,20.5907318 18.4860772,20.5907318 18.4854469,20.5914071 L15.2024244,23.8744296 L13.4954148,24.3322881 L13.9532283,22.6252334 L22.6185531,13.9599087 L23.8690997,15.2091048 L18.4867524,20.5900566 Z M27.0947717,12.9368733 L24.8901093,10.7322109 C24.763164,10.6052656 24.592328,10.5343653 24.4127138,10.5343653 C24.2330547,10.5343653 24.0615884,10.6052656 23.9352733,10.7322109 L22.1405273,12.5270469 L19.6387588,15.0287704 L19.6387588,2.47468682 C19.6387588,2.29574791 19.5678585,2.12356141 19.4408682,1.99729132 L17.7000965,0.256519614 C17.446881,0.00330418006 16.9985209,0.00330418006 16.7453055,0.256519614 L15.3516077,1.6508926 L13.9437299,0.243014791 C13.6797556,-0.0210045016 13.2529582,-0.0210045016 12.9889839,0.243014791 L11.6803666,1.55163215 L10.4169453,0.288255949 C10.290045,0.161310611 10.1184887,0.0904102894 9.9388746,0.0904102894 C9.75998071,0.0904102894 9.5877492,0.161310611 9.46152412,0.288255949 L8.01646302,1.73259678 L6.60863023,0.324718971 C6.35541479,0.071503537 5.90705466,0.071503537 5.65383923,0.324718971 L4.30061093,1.67857749 L2.92919614,0.307162701 C2.66517685,0.0438186495 2.23846945,0.0438186495 1.97440514,0.307162701 L0.197845659,2.08304695 C0.0716205788,2.20931704 0,2.38150354 0,2.56044244 L0,27.3128026 C0,27.6862109 0.302553055,27.9880437 0.675241158,27.9880437 L18.9627974,27.9880437 C19.3362508,27.9880437 19.6380386,27.6862109 19.6380386,27.3128026 L19.6380386,21.3476772 L27.0940514,13.8916643 C27.3580707,13.6283203 27.3580707,13.2008926 27.0947717,12.9368733 L27.0947717,12.9368733 Z" id="Fill-13"></path>
                    </g>
                </g>
            </g>
        </g>
    </g>
</svg>