<?xml version="1.0" encoding="UTF-8" standalone="no"?>
<svg width="28px" height="23px" viewBox="0 0 28 23" version="1.1" xmlns="http://www.w3.org/2000/svg" xmlns:xlink="http://www.w3.org/1999/xlink">
    <!-- Generator: sketchtool 3.8.1 (29687) - http://www.bohemiancoding.com/sketch -->
    <title>0619916B-8AC7-4661-8EB0-2301CAFB52E7</title>
    <desc>Created with sketchtool.</desc>
    <defs></defs>
    <g id="Design" stroke="none" stroke-width="1" fill="none" fill-rule="evenodd">
        <g id="ch_details" transform="translate(-309.000000, -271.000000)" fill="#4A4A4A">
            <g id="Accept-icon" transform="translate(309.000000, 271.000000)">
                <path d="M25.4647884,1.14854514 C24.5976021,0.45375422 24.0943196,0.461360579 23.3532028,1.37542975 C23.3532028,1.37542975 23.3130035,1.42551618 23.2929038,1.45055939 C18.8526112,6.98295071 9.97202587,18.0477334 9.97202587,18.0477334 L3.19930869,12.4636694 C2.38027275,11.776869 1.86745226,11.8138252 1.19379366,12.6550577 L0.461984531,13.4713092 C-0.225904124,14.3351303 -0.138062366,14.8269313 0.675127711,15.5052802 L9.13724272,22.4964458 C10.0086607,23.2274245 10.4991746,23.153128 11.1728332,22.3350219 L26.6038302,4.00999789 C27.3284093,3.14033755 27.2841039,2.62033922 26.3833797,1.90395854 L25.4647884,1.14854514 Z" id="Accept-fill"></path>
            </g>
        </g>
    </g>
</svg>