<?xml version="1.0" encoding="UTF-8" standalone="no"?>
<svg width="24px" height="24px" viewBox="0 0 24 24" version="1.1" xmlns="http://www.w3.org/2000/svg" xmlns:xlink="http://www.w3.org/1999/xlink">
    <!-- Generator: sketchtool 3.8.1 (29687) - http://www.bohemiancoding.com/sketch -->
    <title>C54F5E9C-DEE9-4222-9D32-2D791F59E5F6</title>
    <desc>Created with sketchtool.</desc>
    <defs></defs>
    <g id="Design" stroke="none" stroke-width="1" fill="none" fill-rule="evenodd">
        <g id="main_chalanges_watch" transform="translate(-339.000000, -27.000000)" fill="#4A4A4A">
            <g id="Add-Challange" transform="translate(339.000000, 27.000000)">
                <path d="M14.7336187,23.9902875 L9.25666875,23.9902875 C8.36323125,23.9902875 7.63666875,23.263725 7.63666875,22.370325 L7.63666875,16.8936375 C7.63666875,16.595775 7.39449375,16.3536 7.09670625,16.3536 L1.62001875,16.3536 C0.72658125,16.3536 1.875e-05,15.6270375 1.875e-05,14.7336 L1.875e-05,9.2566875 C1.875e-05,8.36325 0.72658125,7.63665 1.62001875,7.63665 L7.09670625,7.63665 C7.39449375,7.63665 7.63666875,7.394475 7.63666875,7.09665 L7.63666875,1.62 C7.63666875,0.7265625 8.36323125,0 9.25666875,0 L14.7333562,0 C15.6267937,0 16.3533562,0.7265625 16.3533562,1.62 L16.3533562,7.09665 C16.3533562,7.394475 16.5955312,7.63665 16.8933562,7.63665 L22.3700437,7.63665 C23.2634812,7.63665 23.9900437,8.36325 23.9900437,9.2566875 L23.9900437,14.7333375 C23.9900437,15.6268125 23.2634812,16.353375 22.3700437,16.353375 L18.8681437,16.353375 C18.5700562,16.353375 18.3281437,16.111425 18.3281437,15.8133375 C18.3281437,15.5152875 18.5700562,15.2733375 18.8681437,15.2733375 L22.3703062,15.2733375 C22.6681312,15.2733375 22.9103062,15.0311625 22.9103062,14.7333375 L22.9103062,9.2566875 C22.9103062,8.9588625 22.6681312,8.7166875 22.3703062,8.7166875 L16.8936562,8.7166875 C16.0001812,8.7166875 15.2736187,7.9900875 15.2736187,7.09665 L15.2736187,1.62 C15.2736187,1.322175 15.0314062,1.08 14.7336187,1.08 L9.25666875,1.08 C8.95888125,1.08 8.71670625,1.322175 8.71670625,1.62 L8.71670625,7.09665 C8.71670625,7.9900875 7.99010625,8.7166875 7.09670625,8.7166875 L1.62001875,8.7166875 C1.32219375,8.7166875 1.07998125,8.9588625 1.07998125,9.2566875 L1.07998125,14.7333375 C1.07998125,15.0311625 1.32219375,15.273375 1.62001875,15.273375 L7.09670625,15.273375 C7.99010625,15.273375 8.71670625,15.9999375 8.71670625,16.8933375 L8.71670625,22.370025 C8.71670625,22.6678125 8.95888125,22.910025 9.25666875,22.910025 L14.7333562,22.910025 C14.8753687,22.910025 15.0144187,22.8522375 15.1151437,22.7518125 C15.2156062,22.6510875 15.2733562,22.5120375 15.2733562,22.370025 L15.2730937,16.8933375 C15.2733562,15.9999375 16.0001812,15.2733375 16.8930937,15.2733375 C17.1911812,15.2733375 17.4330937,15.5152875 17.4330937,15.8133375 C17.4330937,16.111425 17.1911812,16.353375 16.8930937,16.353375 C16.5953062,16.353375 16.3533562,16.59555 16.3530937,16.8936375 L16.3533562,22.370025 C16.3533562,22.80285 16.1848687,23.2094625 15.8786812,23.5153875 C15.5730562,23.8218375 15.1661812,23.9902875 14.7336187,23.9902875" id="Fill-1"></path>
            </g>
        </g>
    </g>
</svg>