<?xml version="1.0" encoding="UTF-8" standalone="no"?>
<svg width="49px" height="62px" viewBox="0 0 49 62" version="1.1" xmlns="http://www.w3.org/2000/svg" xmlns:xlink="http://www.w3.org/1999/xlink">
    <!-- Generator: sketchtool 3.8.3 (29802) - http://www.bohemiancoding.com/sketch -->
    <title>DD7B6F7F-977D-4541-AA99-F84BB91C9AFF</title>
    <desc>Created with sketchtool.</desc>
    <defs></defs>
    <g id="Design" stroke="none" stroke-width="1" fill="none" fill-rule="evenodd" stroke-linecap="round">
        <g id="Categories_choose" transform="translate(-163.000000, -501.000000)" stroke="#4A4A4A">
            <g id="Social" transform="translate(164.000000, 502.000000)">
                <g>
                    <path d="M24.2918992,7.41445161 C24.2918992,10.9757419 21.4612995,13.8615484 17.9681382,13.8615484 C14.4768754,13.8615484 11.6443772,10.9757419 11.6443772,7.41445161 C11.6443772,3.85316129 14.4768754,0.967354839 17.9681382,0.967354839 C21.4612995,0.967354839 24.2918992,3.85316129 24.2918992,7.41445161 L24.2918992,7.41445161 Z" id="Stroke-1" stroke-width="2"></path>
                    <path d="M12.7498489,31.677871 C14.4964295,34.7610968 13.4598719,38.7036774 10.4356295,40.4843226 C7.41138715,42.2649677 3.54422979,41.2081935 1.79764914,38.1249677 C0.0510684993,35.0417419 1.08762614,31.0991613 4.1118685,29.3185161 C7.13611086,27.537871 11.0032682,28.5946452 12.7498489,31.677871 L12.7498489,31.677871 Z" id="Stroke-3" stroke-width="2"></path>
                    <path d="M45.7619317,23.9533548 C47.5085123,27.0365806 46.4719547,30.9791613 43.4477123,32.7598065 C40.42347,34.5404516 36.5563126,33.4836774 34.8097319,30.4004516 C33.0631513,27.3172258 34.0997089,23.3746452 37.1239513,21.594 C40.1481937,19.8133548 44.015351,20.870129 45.7619317,23.9533548 L45.7619317,23.9533548 Z" id="Stroke-5" stroke-width="2"></path>
                    <path d="M41.3184027,49.3612258 C43.0649833,52.4444516 42.0284257,56.3870323 39.0041833,58.1676774 C35.979941,59.9483226 32.1127836,58.8915484 30.366203,55.8083226 C28.6196223,52.7250968 29.65618,48.7825161 32.6804223,47.001871 C35.7046647,45.2212258 39.571822,46.278 41.3184027,49.3612258 L41.3184027,49.3612258 Z" id="Stroke-7" stroke-width="2"></path>
                    <path id="Stroke-9" stroke-width="2"></path>
                    <path d="M14.8922578,13.214129 L9.21017537,28.7676774" id="Stroke-11" stroke-width="2"></path>
                    <path d="M12.7405464,38.474129 L34.550023,29.8883226" id="Stroke-13" stroke-width="2"></path>
                    <path d="M19.9696817,13.5311613 L35.6281569,22.8137419" id="Stroke-15" stroke-width="2"></path>
                    <path d="M11.2620279,40.0867742 L29.9314563,49.5783871" id="Stroke-17" stroke-width="2"></path>
                </g>
            </g>
        </g>
    </g>
</svg>