<?xml version="1.0" encoding="UTF-8" standalone="no"?>
<svg width="60px" height="37px" viewBox="0 0 60 37" version="1.1" xmlns="http://www.w3.org/2000/svg" xmlns:xlink="http://www.w3.org/1999/xlink">
    <!-- Generator: sketchtool 3.8.3 (29802) - http://www.bohemiancoding.com/sketch -->
    <title>3191462C-BEC2-40A5-937F-8B9A3741E4EF</title>
    <desc>Created with sketchtool.</desc>
    <defs></defs>
    <g id="Design" stroke="none" stroke-width="1" fill="none" fill-rule="evenodd" stroke-linejoin="round">
        <g id="Categories_choose" transform="translate(-282.000000, -99.000000)" stroke="#4A4A4A">
            <g id="Education" transform="translate(282.000000, 100.000000)">
                <g id="Page-1">
                    <polygon id="Stroke-1" stroke-width="2" stroke-linecap="round" points="28.6567742 0.967741935 0.967741935 12.7451613 34.2367742 18.5322581 59.0322581 10.4729032"></polygon>
                    <path d="M16.2067742,25.1107742 C16.2067742,27.0327097 22.0925806,28.5907742 29.3545161,28.5907742 C36.6145161,28.5907742 42.5022581,27.0327097 42.5022581,25.1107742" id="Stroke-3" stroke-width="2" stroke-linecap="round"></path>
                    <path d="M29.5422581,8.83935484 C33.4441935,8.49483871 37.4196774,8.15419355 41.2403226,9.0116129 C45.0609677,9.86903226 48.7751613,12.1316129 50.3854839,15.7006452 C51.1558065,17.403871 51.7654839,19.2890323 52.0074194,21.1432258 C52.3577419,23.8393548 52.7235484,25.8329032 52.3654839,28.6567742" id="Stroke-5" stroke-width="2" stroke-linecap="round"></path>
                    <path d="M52.3956774,26.7456774 C51.8885806,29.4089032 50.9266452,32.0101935 51.9195484,34.352129 C52.7730968,34.0095484 53.7118065,33.5818065 54.0466452,32.7263226 C54.4414839,31.712129 53.8047097,30.6147097 53.2163226,29.6992258 C52.6279355,28.7818065 52.5118065,27.8043871 52.3956774,26.7456774" id="Stroke-7" stroke-width="2" stroke-linecap="round"></path>
                    <path d="M42,23.5869677 L42,15.8450323" id="Stroke-9" stroke-width="2" stroke-linecap="square"></path>
                    <path d="M16.2067742,25.1107742 L15.3435484,15.2456129" id="Stroke-11" stroke-width="2" stroke-linecap="round"></path>
                </g>
            </g>
        </g>
    </g>
</svg>