<?xml version="1.0" encoding="UTF-8" standalone="no"?>
<svg width="55px" height="51px" viewBox="0 0 55 51" version="1.1" xmlns="http://www.w3.org/2000/svg" xmlns:xlink="http://www.w3.org/1999/xlink">
    <!-- Generator: sketchtool 3.8.3 (29802) - http://www.bohemiancoding.com/sketch -->
    <title>F485E52C-B7B6-4DF0-B815-D824458A665B</title>
    <desc>Created with sketchtool.</desc>
    <defs></defs>
    <g id="Design" stroke="none" stroke-width="1" fill="none" fill-rule="evenodd">
        <g id="Categories_choose" transform="translate(-35.000000, -93.000000)">
            <g id="Animals" transform="translate(36.000000, 94.000000)">
                <g>
                    <path d="M12,6.09791667 C16.2875,1.975 21.9479167,0 28.1729167,0 C33.1625,0 37.9145833,1.44583333 41.7583333,4.03333333" id="Stroke-1" stroke="#4A4A4A" stroke-width="2" stroke-linecap="round"></path>
                    <path d="M47.7395833,10 C50.6145833,13.96875 52.1979167,18.8958333 52.1979167,24.1729167 C52.1979167,37.5208333 41.3208333,48.3541667 27.98125,48.3541667 C14.6333333,48.3541667 4,37.5520833 4,24.2041667 C4,21.7 4.26041667,19.2979167 5.29166667,17.01875" id="Stroke-3" stroke="#4A4A4A" stroke-width="2" stroke-linecap="round"></path>
                    <polyline id="Stroke-5" stroke="#4A4A4A" stroke-width="2" stroke-linecap="round" stroke-linejoin="round" points="6.23333333 19.1104167 0 5 15.3375 6.65833333"></polyline>
                    <polyline id="Stroke-7" stroke="#4A4A4A" stroke-width="2" stroke-linecap="round" stroke-linejoin="round" points="47.775 15.4 46.8979167 0 34 8.45833333"></polyline>
                    <path d="M37.9952636,19.8827563 C37.4765136,19.911923 37.0306802,19.5160897 37.0015136,18.9952563 C36.9723469,18.4765063 37.3681802,18.030673 37.8890136,18.0015063 C38.4077636,17.9723397 38.8535969,18.3702563 38.8827636,18.8890063 C38.9119302,19.4077563 38.5140136,19.8535897 37.9952636,19.8827563" id="Fill-9"></path>
                    <path d="M26.6208333,34 C26.6208333,36.65625 24.4666667,38.8104167 21.8104167,38.8104167 C19.1541667,38.8104167 17,36.65625 17,34" id="Stroke-11" stroke="#4A4A4A" stroke-width="2" stroke-linecap="round"></path>
                    <path d="M35.6208333,34 C35.6208333,36.65625 33.4666667,38.8104167 30.8104167,38.8104167 C28.1541667,38.8104167 26,36.65625 26,34" id="Stroke-13" stroke="#4A4A4A" stroke-width="2" stroke-linecap="round"></path>
                    <path d="M38.99375,22.8214244 C38.9333333,23.7526744 38.8708333,24.6839244 38.8104167,25.613091 C38.0583333,24.738091 37.7604167,23.4922577 38.0333333,22.3714244 C38.1395833,23.6026744 38.2458333,24.8339244 38.3520833,26.0672577 C37.2354167,25.1547577 36.11875,24.244341 35,23.3339244 C36.925,21.363091 40.6145833,21.6151744 42.2520833,23.831841" id="Stroke-15" stroke="#4A4A4A" stroke-width="2" stroke-linecap="round" stroke-linejoin="round"></path>
                    <path d="M14.99375,22.8214244 C14.9333333,23.7526744 14.8708333,24.6839244 14.8104167,25.613091 C14.0583333,24.738091 13.7604167,23.4922577 14.0333333,22.3714244 C14.1395833,23.6026744 14.2458333,24.8339244 14.3520833,26.0672577 C13.2354167,25.1547577 12.11875,24.244341 11,23.3339244 C12.925,21.363091 16.6145833,21.6151744 18.2520833,23.831841" id="Stroke-17" stroke="#4A4A4A" stroke-width="2" stroke-linecap="round" stroke-linejoin="round"></path>
                    <path d="M25.5416919,33.5656585 C25.1146086,33.3781585 24.6729419,33.1802418 24.3562752,32.8344085 C24.0396086,32.4906585 23.8812752,31.9552418 24.1041919,31.5448252 C24.3916919,31.0177418 25.1187752,30.9448252 25.7125252,31.0302418 C26.3062752,31.1135752 26.9437752,31.2802418 27.4812752,31.0114918 C27.9437752,32.1614918 27.2500252,33.6344085 26.0666919,34.0094085" id="Stroke-19" stroke="#4A4A4A" stroke-width="2" stroke-linecap="round" stroke-linejoin="round"></path>
                </g>
            </g>
        </g>
    </g>
</svg>