<?xml version="1.0" encoding="UTF-8" standalone="no"?>
<svg width="49px" height="62px" viewBox="0 0 49 62" version="1.1" xmlns="http://www.w3.org/2000/svg" xmlns:xlink="http://www.w3.org/1999/xlink">
    <!-- Generator: sketchtool 3.8.3 (29802) - http://www.bohemiancoding.com/sketch -->
    <title>AAF08915-1F48-4169-A5ED-4A69D70CFB85</title>
    <desc>Created with sketchtool.</desc>
    <defs></defs>
    <g id="Design" stroke="none" stroke-width="1" fill="none" fill-rule="evenodd" stroke-linecap="round">
        <g id="Categories_choose" transform="translate(-40.000000, -223.000000)" stroke="#4A4A4A">
            <g id="Environment" transform="translate(41.000000, 224.000000)">
                <g id="Page-1">
                    <path d="M40.2305806,14.2409032 C40.9312258,12.9634839 41.3299355,11.4983226 41.3299355,9.93832258 C41.3299355,4.98348387 37.3138065,0.967354839 32.3609032,0.967354839 C27.5357419,0.967354839 23.6125161,4.77832258 23.4092903,9.55316129 C22.0370323,6.35574194 18.8628387,4.1163871 15.164129,4.1163871 C10.2112258,4.1163871 6.19509677,8.13251613 6.19509677,13.0854194 C6.19509677,13.3583226 6.21058065,13.6273548 6.23574194,13.8925161 C3.13122581,15.3034839 0.967354839,18.4234839 0.967354839,22.0563871 C0.967354839,27.0092903 4.98348387,31.0254194 9.93832258,31.0254194 C13.0312258,31.0254194 15.7563871,29.4596129 17.3705806,27.0789677 C17.9647742,31.4550968 21.708,34.8305806 26.2486452,34.8305806 C29.328,34.8305806 32.0434839,33.2783226 33.6576774,30.9131613 C34.7512258,31.3873548 35.9570323,31.6525161 37.2247742,31.6525161 C42.1776774,31.6525161 46.1938065,27.6383226 46.1938065,22.6834839 C46.1938065,18.7854194 43.7028387,15.4776774 40.2305806,14.2409032 L40.2305806,14.2409032 Z" id="Stroke-1" stroke-width="2" stroke-linejoin="round"></path>
                    <path d="M16.3513548,59.0322581 C20.2765161,59.0322581 23.4739355,48.1025806 23.595871,34.4322581" id="Stroke-3" stroke-width="2"></path>
                    <path d="M26.1046452,34.8276774 C26.2923871,48.318 29.4569032,59.0328387 33.3491613,59.0328387" id="Stroke-5" stroke-width="2"></path>
                </g>
            </g>
        </g>
    </g>
</svg>