<?xml version="1.0" encoding="UTF-8" standalone="no"?>
<svg width="36px" height="60px" viewBox="0 0 36 60" version="1.1" xmlns="http://www.w3.org/2000/svg" xmlns:xlink="http://www.w3.org/1999/xlink">
    <!-- Generator: sketchtool 3.8.3 (29802) - http://www.bohemiancoding.com/sketch -->
    <title>D93404D1-E528-4001-8F04-EF17A2D3CC83</title>
    <desc>Created with sketchtool.</desc>
    <defs></defs>
    <g id="Design" stroke="none" stroke-width="1" fill="none" fill-rule="evenodd" stroke-linecap="round" stroke-linejoin="round">
        <g id="Categories_choose" transform="translate(-294.000000, -501.000000)" stroke="#4A4A4A">
            <g id="Youth" transform="translate(295.000000, 502.000000)">
                <g>
                    <path d="M26.3554839,15.42 C26.3554839,23.936129 20.456129,30.84 13.1767742,30.84 C5.89935484,30.84 0,23.936129 0,15.42 C0,6.90387097 5.89935484,0 13.1767742,0 C20.456129,0 26.3554839,6.90387097 26.3554839,15.42 L26.3554839,15.42 Z" id="Stroke-1" stroke-width="2"></path>
                    <path d="M13.0465959,31 C11.3743379,31.5148387 11.8891766,34.1896774 13.3059508,35.2174194 C14.722725,36.2451613 16.642725,36.5916129 17.7440153,37.9503226 C19.2053056,39.7541935 18.558854,42.3748387 18.4717572,44.6954839 C18.3285314,48.4948387 20.0162734,52.3212903 22.9175637,54.7754839 C25.8207895,57.2316129 29.8736927,58.2612903 33.5975637,57.4909677" id="Stroke-3" stroke-width="2"></path>
                    <path d="M11.0058065,33.9303226 C11.003871,32.9529032 11.0019355,31.9774194 11,31 C13.0864516,31.7025806 15.1709677,32.4032258 17.2554839,33.103871" id="Stroke-5" stroke-width="2"></path>
                </g>
            </g>
        </g>
    </g>
</svg>