<?xml version="1.0" encoding="UTF-8" standalone="no"?>
<svg width="52px" height="52px" viewBox="0 0 52 52" version="1.1" xmlns="http://www.w3.org/2000/svg" xmlns:xlink="http://www.w3.org/1999/xlink">
    <!-- Generator: sketchtool 3.8.3 (29802) - http://www.bohemiancoding.com/sketch -->
    <title>83CCC25E-7908-4065-BEE3-0D5719624709</title>
    <desc>Created with sketchtool.</desc>
    <defs></defs>
    <g id="Design" stroke="none" stroke-width="1" fill="none" fill-rule="evenodd" stroke-linecap="round" stroke-linejoin="round">
        <g id="Categories_choose" transform="translate(-162.000000, -365.000000)" stroke="#4A4A4A">
            <g id="International" transform="translate(163.000000, 366.000000)">
                <g id="Page-1">
                    <path d="M48.4922596,33.5304281 C43.7810043,46.5039371 29.4431839,53.2037492 16.4697271,48.4924749 C3.49426974,43.7812006 -3.20351491,29.4433227 1.50774042,16.4678132 C6.21899575,3.49430424 20.5568161,-3.20350732 33.5302729,1.50776694 C46.5057303,6.2190412 53.2035149,20.5569192 48.4922596,33.5304281 L48.4922596,33.5304281 Z" id="Stroke-1" stroke-width="2"></path>
                    <path d="M44.5629916,41.1290323 C45.970619,38.3814523 44.7335508,34.9152746 42.5265554,32.7292879 C40.3216149,30.5433012 37.3378558,29.3234965 34.4876671,28.0412925 C31.6354235,26.7570757 28.7235869,25.2655323 26.9111381,22.7554721 C24.63633,19.6093421 24.5253637,15.3037938 25.877508,11.6826243 C27.2275974,8.06145488 29.8661283,5.03408475 32.7594705,2.41935484" id="Stroke-3" stroke-width="2"></path>
                    <path d="M31.4516129,32.5180659 C34.5792792,31.7478197 38.1095782,32.7254399 40.317831,34.967054 C42.5260838,37.210643 43.3188964,40.6293513 42.3081641,43.5483871" id="Stroke-5" stroke-width="2"></path>
                    <path d="M30.9321346,33.0645161 C28.1610461,35.5247112 27.3985055,40.0484906 29.2026609,43.3180134 C29.8060114,44.4091965 30.6510951,45.3594519 31.130631,46.5110326 C31.6101668,47.6646266 31.6180281,49.172553 30.7002279,50" id="Stroke-7" stroke-width="2"></path>
                    <path d="M15.3225806,2.22930441 C17.907057,2.40312143 19.0956397,5.20642625 21.6564233,5.61469415 C23.0483682,5.83701825 24.5252118,4.81634851 24.8411142,3.40964328 C25.1570166,2.00091692 24.9042947,2.57087508 24.9042947,0" id="Stroke-9" stroke-width="2"></path>
                    <path d="M0.806451613,29.0322581 C5.58260938,29.4473981 11.2447495,30.4508172 13.1409554,34.704527 C14.8070096,38.4407873 12.680652,43.1844018 8.48496539,43.5483871" id="Stroke-11" stroke-width="2"></path>
                    <path d="M10.2894407,4.8387125 C13.8441971,4.83667681 18.7964106,5.93391562 20.737776,8.90806386 C21.7278113,10.4266912 21.888743,12.3483859 21.7115144,14.1520104 C21.3611316,17.7266882 19.5868091,21.3624368 16.3966954,23.0194914 C13.8951248,24.3202995 10.9290932,24.2470146 8.10973344,24.1411585 C5.40648896,24.0414095 2.70324448,23.9416605 0,23.8398759" id="Stroke-13" stroke-width="2"></path>
                </g>
            </g>
        </g>
    </g>
</svg>