<?xml version="1.0" encoding="UTF-8" standalone="no"?>
<svg width="38px" height="61px" viewBox="0 0 38 61" version="1.1" xmlns="http://www.w3.org/2000/svg" xmlns:xlink="http://www.w3.org/1999/xlink">
    <!-- Generator: sketchtool 3.8.3 (29802) - http://www.bohemiancoding.com/sketch -->
    <title>C45E32F5-CD88-4FD8-8B0C-2C2B427C4257</title>
    <desc>Created with sketchtool.</desc>
    <defs></defs>
    <g id="Design" stroke="none" stroke-width="1" fill="none" fill-rule="evenodd">
        <g id="Categories_choose" transform="translate(-45.000000, -500.000000)" stroke="#4A4A4A">
            <g id="Research" transform="translate(46.000000, 501.000000)">
                <g id="Page-1">
                    <path d="M16.8825806,3.44129032 C16.8825806,5.34193548 15.3419355,6.88258065 13.4412903,6.88258065 C11.5406452,6.88258065 10,5.34193548 10,3.44129032 C10,1.54064516 11.5406452,0 13.4412903,0 C15.3419355,0 16.8825806,1.54064516 16.8825806,3.44129032 L16.8825806,3.44129032 Z" id="Stroke-1" stroke-width="2"></path>
                    <path d="M18.0160132,12.265668 C17.8476261,10.6398615 19.0263358,9.18631314 20.6521422,9.01599056 C22.2779487,8.84760346 23.7314971,10.0282486 23.9018197,11.6540551 C24.0702067,13.277926 22.8895616,14.7334099 21.2656906,14.901797 C19.6398842,15.0721196 18.1844003,13.8914744 18.0160132,12.265668 L18.0160132,12.265668 Z" id="Stroke-3" stroke-width="2"></path>
                    <path d="M10.0130685,13.6627459 C9.87564915,12.3369395 10.8375846,11.1524233 12.1633911,11.0130685 C13.4872621,10.8756491 14.6737137,11.8375846 14.811133,13.1633911 C14.9504879,14.4891975 13.9866169,15.6737137 12.6627459,15.8130685 C11.3369395,15.9504879 10.1504879,14.9885524 10.0130685,13.6627459 L10.0130685,13.6627459 Z" id="Stroke-5" stroke-width="2"></path>
                    <path d="M25.9793548,23.4748387 L9.02451613,23.4748387 C7.9116129,23.4748387 7,22.5632258 7,21.4503226 L7,21.0264516 C7,19.9116129 7.9116129,19 9.02451613,19 L25.9793548,19 C27.0922581,19 28.003871,19.9116129 28.003871,21.0264516 L28.003871,21.4503226 C28.003871,22.5632258 27.0922581,23.4748387 25.9793548,23.4748387 L25.9793548,23.4748387 Z" id="Stroke-7" stroke-width="2"></path>
                    <path d="M22.0332031,34.3658065 L35.1291137,54.82 C36.182017,56.6374194 34.862017,58.2012903 32.758146,58.2012903 L2.76008147,58.2012903 C0.636855664,58.2012903 -0.683144336,56.6567742 0.36975889,54.82 L12.0332031,34.3658065" id="Stroke-9" stroke-width="2" stroke-linecap="round"></path>
                    <path d="M22,34.4006452 L22,25" id="Stroke-11" stroke-width="2" stroke-linecap="round"></path>
                    <path d="M12,34 L12,25" id="Stroke-13" stroke-width="2" stroke-linecap="round"></path>
                </g>
            </g>
        </g>
    </g>
</svg>