<?xml version="1.0" encoding="UTF-8" standalone="no"?>
<svg width="52px" height="52px" viewBox="0 0 52 52" version="1.1" xmlns="http://www.w3.org/2000/svg" xmlns:xlink="http://www.w3.org/1999/xlink">
    <!-- Generator: sketchtool 3.8.3 (29802) - http://www.bohemiancoding.com/sketch -->
    <title>81DA27FF-1ED2-4A37-88FC-E7B2CD3AB7D6</title>
    <desc>Created with sketchtool.</desc>
    <defs></defs>
    <g id="Design" stroke="none" stroke-width="1" fill="none" fill-rule="evenodd" stroke-linecap="round" stroke-linejoin="round">
        <g id="Categories_choose" transform="translate(-38.000000, -365.000000)" stroke="#4A4A4A">
            <g id="Human" transform="translate(39.000000, 366.000000)">
                <g id="Page-1">
                    <path d="M50,25 C50,38.808 38.808,50 25,50 C11.192,50 0,38.808 0,25 C0,11.192 11.192,0 25,0 C38.808,0 50,11.192 50,25 L50,25 Z" id="Stroke-1" stroke-width="2"></path>
                    <path d="M47.5,14.7929521 C44.7599438,13.833281 41.9716754,12.8635505 39.0046203,12.5778623 C36.0395741,12.2901621 32.8173965,12.7770393 30.6317798,14.4187408 C28.647047,15.9095506 27.7651667,18.1628663 27.674769,20.3497897 C27.5843712,22.5347013 28.1990759,24.6934582 28.7977099,26.8260606 C29.2999196,28.6085944 29.7760145,30.5420198 28.8459221,32.2098758 C27.9138208,33.8757199 24.9226597,34.8635575 23.3095621,33.5799723 C23.0403777,33.3023316 22.7691844,33.0246909 22.5,32.7470502" id="Stroke-3" stroke-width="2"></path>
                    <path d="M19.1666667,39.7024056 C23.9060073,42.7823327 30.926873,42.1764454 35,38.3333333" id="Stroke-5" stroke-width="2"></path>
                    <path d="M33.3333333,20.6942833 C35.2882353,19.2662929 37.754902,18.8068919 40,19.4541268 C38.9960784,19.4677052 37.9901961,19.4812835 36.9843137,19.4948619 C36.6529412,20.4973972 37.4588235,21.7443428 38.3862745,21.6628727 C39.3137255,21.5814026 39.945098,20.2077256 39.4862745,19.2753451" id="Stroke-7" stroke-width="2"></path>
                    <path d="M11.6666667,20.6942833 C13.6215686,19.2662929 16.0882353,18.8068919 18.3333333,19.4541268 C17.3294118,19.4677052 16.3235294,19.4812835 15.3176471,19.4948619 C14.9862745,20.4973972 15.7921569,21.7443428 16.7196078,21.6628727 C17.6470588,21.5814026 18.2803922,20.2077256 17.8196078,19.2753451" id="Stroke-9" stroke-width="2"></path>
                </g>
            </g>
        </g>
    </g>
</svg>