<?xml version="1.0" encoding="UTF-8" standalone="no"?>
<svg width="60px" height="45px" viewBox="0 0 60 45" version="1.1" xmlns="http://www.w3.org/2000/svg" xmlns:xlink="http://www.w3.org/1999/xlink">
    <!-- Generator: sketchtool 3.8.3 (29802) - http://www.bohemiancoding.com/sketch -->
    <title>753F1E95-CD11-4992-9400-403E85C6164E</title>
    <desc>Created with sketchtool.</desc>
    <defs></defs>
    <g id="Design" stroke="none" stroke-width="1" fill="none" fill-rule="evenodd" stroke-linecap="round">
        <g id="Categories_choose" transform="translate(-285.000000, -240.000000)" stroke="#4A4A4A">
            <g id="Health" transform="translate(286.000000, 241.000000)">
                <g>
                    <path d="M27.7129032,12.9698617 C28.2103226,6.41824879 36.3858065,-0.959815725 42.8696774,0.10276492 C49.3535484,1.16341008 54.0935484,8.40018427 52.4735484,14.7698617 C50.9135484,20.9034101 44.9464516,24.687281 39.5058065,27.9214746 C34.0651613,31.1537327 27.2503226,36.5905069 26,42.7956681" id="Stroke-1" stroke-width="2"></path>
                    <path d="M27.7133138,12.1222153 C24.6842815,7.51576366 20.9739589,3.02544108 15.8604105,0.966086237 C10.7487976,-1.0932686 3.97266861,0.106731398 1.22234603,4.88350559 C-1.45249268,9.52866688 0.587507322,15.6506024 4.20492668,19.6047959 C7.82428152,23.5589895 12.7346041,26.0325378 17.0836364,29.1660862 C21.4326686,32.2996346 25.5010557,36.6118927 26.0004105,41.9480217" id="Stroke-3" stroke-width="2"></path>
                    <path d="M19,26.44 C22.6677419,26.6103226 26.3374194,26.7806452 30.0051613,26.9509677 C30.8606452,25.3541935 31.7141935,23.7574194 32.5696774,22.1606452 C33.156129,23.923871 33.7425806,25.6851613 34.3309677,27.4483871 C36.2103226,21.6322581 38.0896774,15.816129 39.9690323,10 C40.7780645,19.1954839 41.5890323,28.3929032 42.3980645,37.5883871 C43.5458065,34.3987097 44.6954839,31.2070968 45.8451613,28.0174194 C45.8548387,28.4819355 48.3264516,28.9483871 48.3380645,29.4148387 C49.3290323,27.4870968 51.1270968,25.9909677 51.1270968,25.9909677 C51.1270968,25.9909677 55.6387097,25.3754839 57.5954839,25.3754839" id="Stroke-5" stroke-width="2" stroke-linejoin="round"></path>
                </g>
            </g>
        </g>
    </g>
</svg>