<?xml version="1.0" encoding="UTF-8" standalone="no"?>
<svg width="36px" height="60px" viewBox="0 0 36 60" version="1.1" xmlns="http://www.w3.org/2000/svg" xmlns:xlink="http://www.w3.org/1999/xlink">
    <!-- Generator: sketchtool 3.8.3 (29802) - http://www.bohemiancoding.com/sketch -->
    <title>9152B35E-B05F-4012-BB96-42699C653C8E</title>
    <desc>Created with sketchtool.</desc>
    <defs></defs>
    <g id="Design" stroke="none" stroke-width="1" fill="none" fill-rule="evenodd" stroke-linecap="round">
        <g id="Categories_choose" transform="translate(-174.000000, -223.000000)" stroke="#4A4A4A">
            <g id="Events" transform="translate(175.000000, 224.000000)">
                <g>
                    <path d="M0.642580645,57.9380645 C0.427741935,38.9587097 0.212903226,19.9793548 0,1" id="Stroke-1" stroke-width="2"></path>
                    <path d="M0,0.511553194 C3.44516129,-1.07554358 8.07290323,1.20832739 8.90709677,4.90897255 C15.2187097,3.59864997 21.0367742,4.70381126 25.4922581,9.36445642" id="Stroke-3" stroke-width="2"></path>
                    <path d="M0,19.2677419 C1.34129032,17.9612903 3.18387097,17.336129 4.96064516,16.7477419 C5.52,16.5619355 6.08129032,16.376129 6.64064516,16.1922581 C8.82,15.4703226 11.0070968,14.7464516 13.26,14.2935484 C19.5309677,13.0316129 26.2219355,13.9645161 31.9083871,16.8909677 C30.1858065,14.3090323 27.6193548,11.1174194 25.3470968,9" id="Stroke-5" stroke-width="2"></path>
                </g>
            </g>
        </g>
    </g>
</svg>