<?xml version="1.0" encoding="UTF-8" standalone="no"?>
<svg width="23px" height="61px" viewBox="0 0 23 61" version="1.1" xmlns="http://www.w3.org/2000/svg" xmlns:xlink="http://www.w3.org/1999/xlink">
    <!-- Generator: sketchtool 3.8.3 (29802) - http://www.bohemiancoding.com/sketch -->
    <title>2CE32D94-F6D6-4AB2-9BEE-712CAD72B399</title>
    <desc>Created with sketchtool.</desc>
    <defs></defs>
    <g id="Design" stroke="none" stroke-width="1" fill="none" fill-rule="evenodd" stroke-linecap="round" stroke-linejoin="round">
        <g id="Categories_choose" transform="translate(-175.000000, -87.000000)" stroke="#4A4A4A" stroke-width="2">
            <g id="Culture" transform="translate(176.000000, 87.000000)">
                <path d="M12.1447876,31.3386477 C12.0499489,30.0883252 11.9551101,28.8380026 11.8602714,27.5857445 C16.3428521,27.2547768 20.5486585,31.3483252 20.6415618,35.8444542 C20.734465,40.3405832 17.0009166,44.4941316 12.5609166,45.2005832 C8.11898111,45.9089703 3.44865853,43.3425187 1.35059401,39.3650994 C-0.74553502,35.3896155 -0.327470504,30.3031639 2.08994885,26.5134864 C4.71640046,22.3947768 9.2357553,19.9560671 12.8822069,16.7063897 C16.526723,13.4567123 19.4802714,8.30058322 17.5157553,3.82961548 C17.1170456,2.92380903 16.4009166,2.01993806 15.4138198,1.94058322 C13.4822069,1.78574451 12.8686585,4.47993806 12.9751101,6.41542193 C13.7957553,21.5663897 14.6164005,36.7173574 15.4370456,51.8683252 C15.5415618,53.7709058 15.626723,55.7644542 14.8080134,57.4850994 C13.9873682,59.203809 11.9415618,60.5005832 10.1647876,59.811551 C8.38801337,59.1225187 8.12865853,55.9947768 9.95962627,55.4741316" id="Page-1"></path>
            </g>
        </g>
    </g>
</svg>