<?xml version="1.0" encoding="UTF-8" standalone="no"?>
<svg width="48px" height="37px" viewBox="0 0 48 37" version="1.1" xmlns="http://www.w3.org/2000/svg" xmlns:xlink="http://www.w3.org/1999/xlink">
    <!-- Generator: sketchtool 3.8.1 (29687) - http://www.bohemiancoding.com/sketch -->
    <title>187B1076-CA67-4932-A396-9DA65A9F3BCF</title>
    <desc>Created with sketchtool.</desc>
    <defs></defs>
    <g id="Design" stroke="none" stroke-width="1" fill="none" fill-rule="evenodd">
        <g id="ch_details" transform="translate(-39.000000, -280.000000)" fill="#4A4A4A">
            <g id="Animals_cat" transform="translate(39.000000, 280.000000)">
                <g id="icon">
                    <path d="M14.8035359,14.5919104 C14.1996914,14.5919104 13.7083446,15.0831826 13.7083446,15.6871017 C13.7083446,16.2910208 14.1996168,16.7822184 14.8035359,16.7822184 C15.4075297,16.7822184 15.8986526,16.2909462 15.8986526,15.6871017 C15.8986526,15.0832572 15.4073804,14.5919104 14.8035359,14.5919104" id="Fill-1"></path>
                    <path d="M32.9683633,14.5919104 C32.3645935,14.5919104 31.873172,15.0831826 31.873172,15.6871017 C31.873172,16.2910208 32.3644442,16.7822184 32.9683633,16.7822184 C33.5723571,16.7822184 34.0635546,16.2909462 34.0635546,15.6871017 C34.0635546,15.0832572 33.5723571,14.5919104 32.9683633,14.5919104" id="Fill-3"></path>
                    <path d="M41.8705269,26.3354501 C38.9361816,24.9510644 35.3367788,25.152321 35.1275347,25.1653101 C34.7804865,25.1871826 34.517121,25.4860068 34.5386202,25.8331297 C34.5602687,26.1800286 34.8587198,26.4442899 35.2062159,26.4226414 C35.2548877,26.4198047 38.9526047,26.2162339 41.6333636,27.6260753 C41.3384212,28.8005449 40.8296062,29.8808062 40.0201008,30.8321468 C37.5249219,33.7649991 32.4444616,35.2291857 24.5021412,35.3032386 L24.5021412,25.243618 C25.7308815,25.0613226 26.5951801,24.3581935 26.5951801,23.4665729 C26.5951801,22.4269213 25.4204118,21.6429462 23.8624647,21.6429462 C22.3044429,21.6429462 21.1296747,22.4269213 21.1296747,23.4665729 C21.1296747,24.3629711 22.0032299,25.0687129 23.2424212,25.2464547 L23.2424212,35.3032386 C15.3498924,35.2303801 10.2851832,33.7569369 7.77238694,30.8034812 C6.98102146,29.8734905 6.47078818,28.8335403 6.16203546,27.7122961 C8.85294681,26.2079477 12.6983963,26.4195807 12.7478146,26.4226414 C13.0940417,26.4445138 13.394135,26.1807751 13.4159328,25.833503 C13.4378053,25.4863801 13.1739919,25.1871826 12.8268691,25.1653101 C12.6128473,25.1519477 8.86324852,24.9424796 5.89732628,26.4261499 C5.71510544,25.1482899 5.73712722,23.7864485 5.86731695,22.3751888 C8.04993593,22.300912 9.99636205,22.803307 10.0307757,22.8124143 C10.3667011,22.9018451 10.7119577,22.7019322 10.8015378,22.3659322 C10.8910432,22.0298575 10.691205,21.6847502 10.3550557,21.5951701 C10.2059048,21.5555309 8.27411011,21.0550022 6.0088535,21.1057642 C6.09783639,20.4150271 6.2048846,19.7153319 6.31924852,19.0105605 C6.68734806,16.741646 9.28487216,10.1243645 9.31107434,10.0578513 L9.51912411,9.52395397 L9.00821897,9.2647689 C8.9882874,9.25461649 7.01043359,8.23071602 6.70429362,6.30892442 C6.47071353,4.84242364 7.23662333,3.18578911 8.9815689,1.38209393 C10.1327477,1.43106439 14.8648162,1.80603173 17.3309561,4.6573661 L17.5585642,4.92073157 L17.9026264,4.86802862 C17.9323372,4.86347496 20.9145331,4.41221524 23.8644056,4.40221213 L23.9610028,4.40213748 C26.9257306,4.40213748 29.7874414,4.86242986 29.8159577,4.86720747 L30.1634538,4.92371757 L30.3936747,4.6575154 C32.853768,1.81319813 37.591883,1.43293064 38.7433605,1.38246719 C40.4880821,3.18608771 41.2539919,4.84257294 41.0203372,6.30899907 C40.7141972,8.23086532 38.7363434,9.25476579 38.7181288,9.2640224 L38.2025953,9.52171446 L38.4136311,10.057926 C38.4399079,10.1245138 41.0372081,16.7411981 41.4055316,19.0107098 C41.5197462,19.7145854 41.6268691,20.4132355 41.7168224,21.1027036 C39.5515969,21.0886694 37.7433481,21.5569493 37.5991988,21.5953194 C37.2631988,21.6848249 37.0635098,22.0295589 37.1528659,22.3656336 C37.2422221,22.7015589 37.5869561,22.9015465 37.9231801,22.8126383 C37.9566233,22.8037549 39.7718893,22.3354003 41.8610463,22.3697393 C41.9932516,23.7524081 42.0251272,25.0858078 41.8705269,26.3354501 M23.8624647,24.0305543 C22.8957462,24.0305543 22.3893947,23.6114687 22.3893947,23.4664983 C22.3893947,23.3216771 22.8958208,22.9025916 23.8624647,22.9025916 C24.8289593,22.9025916 25.33546,23.3216771 25.33546,23.4664983 C25.33546,23.6114687 24.8290339,24.0305543 23.8624647,24.0305543 M47.7875907,23.2879353 C46.5225705,21.9174345 44.7277586,21.3497953 42.9956529,21.1704858 C42.8978613,20.3909151 42.7780479,19.6015652 42.6490526,18.8063179 C42.3168597,16.7583677 40.4033543,11.7040348 39.7792796,10.0881593 C40.5469064,9.57516392 41.9569717,8.39203484 42.2624398,6.50995708 C42.5777617,4.56696485 41.6299297,2.46407216 39.4452952,0.279288336 L39.2608348,0.0746724728 L38.9999328,0.0746724728 C38.7472423,0.0746724728 32.9142345,0.132600933 29.6777058,3.54918569 C28.8152734,3.42422146 26.4554351,3.13704261 23.9610774,3.13704261 L23.8602998,3.13219036 C21.3733325,3.14062582 18.9280946,3.43332877 18.0493885,3.5541126 C14.8135316,0.134915086 8.97776174,0.0746724728 8.72499658,0.0746724728 L8.46409456,0.0746724728 L8.27963421,0.279139036 C6.09499969,2.46392286 5.14716765,4.57674401 5.46248958,6.51981089 C5.76803235,8.40203795 7.17817232,9.58009082 7.94564977,10.0930862 C7.32150047,11.7090364 5.40814432,16.7607565 5.07587683,18.8087067 C4.94718009,19.6015652 4.82706812,20.3998731 4.73076952,21.1961655 C3.07047714,21.4009306 1.37651757,21.9775278 0.166962364,23.2879353 C-0.0688572317,23.5436118 -0.0529567652,23.9420193 0.202645101,24.1780628 C0.323652877,24.2897393 0.476834837,24.3450551 0.629718196,24.3450551 C0.799323173,24.3450551 0.968554899,24.2769742 1.09277263,24.1423054 C1.99603857,23.1638669 3.28225941,22.6882712 4.59856423,22.4891048 C4.46807589,24.081167 4.47322675,25.6474003 4.74674463,27.1266663 C4.13088149,27.5818078 3.58727963,28.1401157 3.16923919,28.8251795 C2.9881381,29.1221375 3.08197325,29.509646 3.37893126,29.6908964 C3.48142582,29.7533039 3.59459533,29.7831639 3.7063465,29.7831639 C3.91872597,29.7831639 4.12610389,29.6757425 4.24472286,29.481279 C4.4761381,29.1019073 4.76062955,28.7693412 5.08311788,28.4772355 C5.44270731,29.6019135 5.99638694,30.6599291 6.81290949,31.6197051 C9.64505879,34.9483521 15.2219421,36.5664672 23.8625393,36.5664672 C32.5650215,36.5664672 38.1641505,34.956489 40.9796529,31.6471017 C41.831037,30.6464174 42.3924802,29.5438358 42.7434103,28.3648871 C43.1191241,28.6829711 43.4483309,29.0523397 43.7100541,29.481279 C43.8287477,29.6757425 44.0359764,29.7832386 44.2484305,29.7832386 C44.3601816,29.7832386 44.4734258,29.7533785 44.5757711,29.6908964 C44.8727291,29.509646 44.9666389,29.1221375 44.7853885,28.8251795 C44.3326358,28.0829337 43.7322252,27.4898389 43.0523869,27.015139 C43.2898488,25.5755869 43.2770837,24.0437673 43.1353232,22.4582743 C44.5276218,22.6365387 45.9083496,23.1091484 46.8619297,24.1423801 C46.9861474,24.2769742 47.1552299,24.3450551 47.3249841,24.3450551 C47.4777182,24.3450551 47.6309748,24.2898886 47.7520572,24.1780628 C48.0075844,23.9420193 48.0234103,23.5434625 47.7875907,23.2879353" id="Fill-5"></path>
                </g>
            </g>
        </g>
    </g>
</svg>