<?xml version="1.0" encoding="UTF-8" standalone="no"?>
<svg width="27px" height="27px" viewBox="0 0 27 27" version="1.1" xmlns="http://www.w3.org/2000/svg" xmlns:xlink="http://www.w3.org/1999/xlink">
    <!-- Generator: sketchtool 3.8.3 (29802) - http://www.bohemiancoding.com/sketch -->
    <title>15CCCA90-E1B4-4CB8-A373-AA693C1E9B19</title>
    <desc>Created with sketchtool.</desc>
    <defs></defs>
    <g id="Design" stroke="none" stroke-width="1" fill="none" fill-rule="evenodd">
        <g id="ch_details_complete" transform="translate(-309.000000, -268.000000)" fill="#4A4A4A">
            <g id="Complete" transform="translate(304.000000, 263.000000)">
                <g id="noun_426717_cc" transform="translate(5.000000, 5.000000)">
                    <g id="Group">
                        <path d="M26.0090766,11.7020281 C25.4550118,11.1838571 25.24191,10.3634197 25.5402526,9.67252508 L25.7959747,9.02481135 C26.2221784,8.03165029 25.6681137,6.90894649 24.6452249,6.60668008 L23.9632991,6.43395642 C23.238753,6.21805184 22.7273086,5.5703381 22.6846882,4.79308162 L22.6420679,4.10218698 C22.5994475,3.15220683 21.7896606,2.41813127 20.894633,2.41813127 C20.8093923,2.41813127 20.6815312,2.41813127 20.5962904,2.46131219 L19.956985,2.5044931 C19.8717443,2.5044931 19.7438832,2.54767402 19.6586425,2.54767402 C19.019337,2.54767402 18.4226519,2.20222669 18.1243094,1.59769387 L17.7833465,0.993161057 C17.4423836,0.38862824 16.8456985,0.0431809155 16.2490134,0.0431809155 C15.9080505,0.0431809155 15.5244672,0.129542747 15.2261247,0.38862824 L14.67206,0.77725648 C14.3737174,0.993161057 13.9901342,1.1227038 13.6491713,1.1227038 C13.265588,1.1227038 12.9246251,0.993161057 12.6262826,0.77725648 L12.0722178,0.345447324 C11.7738753,0.129542747 11.390292,0 11.0493291,0 C10.4100237,0 9.8133386,0.345447324 9.51499605,0.906799226 L9.17403315,1.51133204 C8.87569061,2.07268395 8.27900552,2.41813127 7.63970008,2.41813127 C7.55445935,2.41813127 7.42659826,2.41813127 7.34135754,2.37495035 L6.65943173,2.24540761 C6.574191,2.24540761 6.44632991,2.20222669 6.36108919,2.20222669 C5.4234412,2.20222669 4.65627466,2.93630226 4.6136543,3.8862824 L4.57103394,4.57717705 C4.52841358,5.35443353 4.01696922,6.00214726 3.29242305,6.21805184 L2.48263615,6.52031825 C1.45974743,6.82258466 0.905682715,7.94528846 1.33188635,8.93844952 L1.58760852,9.58616325 C1.88595107,10.2770579 1.67284925,11.0974953 1.11878453,11.6156663 L0.607340174,12.0906564 C-0.202446725,12.781551 -0.202446725,14.0769785 0.607340174,14.7678731 L1.11878453,15.2428632 C1.67284925,15.7610342 1.88595107,16.5814716 1.58760852,17.2723662 L1.28926598,17.9200799 C0.863062352,18.913241 1.41712707,20.0359448 2.44001579,20.3382112 L3.12194159,20.5109349 C3.84648777,20.7268395 4.35793212,21.3745532 4.40055249,22.1518097 L4.44317285,22.8427043 C4.48579321,23.7926845 5.29558011,24.52676 6.19060773,24.52676 C6.27584846,24.52676 6.40370955,24.52676 6.48895028,24.4835791 L7.17087609,24.3972173 C7.25611681,24.3972173 7.3839779,24.3540364 7.46921863,24.3540364 C8.10852407,24.3540364 8.70520916,24.6994837 9.0035517,25.3040165 L9.3445146,25.9085493 C9.68547751,26.5130821 10.2821626,26.8585295 10.8788477,26.8585295 C11.2198106,26.8585295 11.6033938,26.7721676 11.9017364,26.5130821 L12.4558011,26.1244539 C12.7541436,25.9085493 13.1377269,25.7790066 13.4786898,25.7790066 C13.8622731,25.7790066 14.203236,25.9085493 14.5015785,26.1244539 L15.0556433,26.5562631 C15.3539858,26.7721676 15.7375691,26.9017104 16.078532,26.9017104 C16.7178374,26.9017104 17.3145225,26.5562631 17.612865,25.9949112 L17.9538279,25.3903783 C18.2521705,24.8290264 18.8488556,24.4835791 19.488161,24.4835791 C19.5734017,24.4835791 19.7012628,24.4835791 19.7865036,24.52676 L20.4684294,24.6563028 C20.5536701,24.6563028 20.6815312,24.6994837 20.7667719,24.6994837 C21.7044199,24.6994837 22.4715864,23.9654081 22.5142068,23.015428 L22.5568272,22.3245333 C22.5994475,21.5472769 23.1108919,20.8995631 23.835438,20.6836585 L24.5173639,20.5109349 C25.5402526,20.2086685 26.0943173,19.0859647 25.6681137,18.0928036 L25.4123915,17.4450899 C25.1140489,16.7541952 25.3271507,15.9337578 25.8812155,15.4155868 L26.3926598,14.9405968 C27.2024467,14.2497021 27.2024467,12.9542747 26.3926598,12.26338 L26.0090766,11.7020281 L26.0090766,11.7020281 Z M14.2884767,15.9337578 L12.1574586,18.0928036 L10.0264404,15.9337578 L7.98066298,13.817893 L10.1116811,11.6588472 L12.1574586,13.7747121 L17.0588003,8.80890677 L19.1898185,10.9679525 L14.2884767,15.9337578 L14.2884767,15.9337578 Z" id="Shape"></path>
                    </g>
                </g>
            </g>
        </g>
    </g>
</svg>