<?xml version="1.0" encoding="UTF-8" standalone="no"?>
<svg width="32px" height="28px" viewBox="0 0 32 28" version="1.1" xmlns="http://www.w3.org/2000/svg" xmlns:xlink="http://www.w3.org/1999/xlink">
    <!-- Generator: Sketch 3.8.2 (29753) - http://www.bohemiancoding.com/sketch -->
    <title>icon</title>
    <desc>Created with Sketch.</desc>
    <defs></defs>
    <g id="Symbols" stroke="none" stroke-width="1" fill="none" fill-rule="evenodd">
        <g id="Photo" fill="#000000">
            <g id="icon">
                <path d="M18.9908456,23.5911111 C15.4479423,23.5911111 12.5666032,20.7090332 12.5666032,17.166176 C12.5666032,13.6233189 15.4486811,10.741241 18.9908456,10.741241 C22.5337027,10.741241 25.4164271,13.6233189 25.4164271,17.166176 C25.4164271,20.7090332 22.5337027,23.5911111 18.9908456,23.5911111 L18.9908456,23.5911111 Z M18.9908456,9.45154401 C14.7379856,9.45154401 11.27686,12.9119307 11.27686,17.1654834 C11.27686,21.4196825 14.7379856,24.8801154 18.9908456,24.8801154 C23.2457374,24.8801154 26.7061703,21.4196825 26.7061703,17.1654834 C26.7054315,12.9126696 23.2450447,9.45154401 18.9908456,9.45154401 L18.9908456,9.45154401 Z" id="Fill-1"></path>
                <g id="camera" transform="translate(0.000000, 0.024012)">
                    <path d="M30.703372,23.133525 C30.703372,23.3974211 30.489346,23.6120935 30.2254499,23.6120935 L26.9783504,23.6120935 C28.4135019,21.8431354 29.2786563,19.5920531 29.2786563,17.1414442 C29.2786563,11.4701483 24.6628987,6.85508341 18.9908641,6.85508341 C13.3188294,6.85508341 8.70441097,11.4701483 8.70441097,17.1414442 C8.70441097,19.5920531 9.56813391,21.8431354 11.0046707,23.6120935 L1.76761443,23.6120935 C1.50302569,23.6120935 1.28899971,23.3966823 1.28899971,23.1334788 L1.28899971,5.5342176 C1.28899971,5.27027532 1.50302569,5.05560289 1.76761443,5.05560289 L15.4341079,5.05560289 C15.7388698,5.05560289 16.0007342,4.84296219 16.0651036,4.54577316 L16.6268352,1.92486696 C16.6358857,1.88053795 16.640688,1.83551631 16.640688,1.78975584 C16.640688,1.52590592 16.8560993,1.3111873 17.1186563,1.3111873 L24.0471411,1.3111873 C24.3116837,1.3111873 24.5257558,1.52590592 24.5257558,1.78975584 C24.5257558,1.83482367 24.5305582,1.88053795 24.5402551,1.92486696 L25.1019867,4.54577316 C25.1650632,4.84296219 25.4282667,5.05560289 25.7315971,5.05560289 L30.2248035,5.05560289 C30.489346,5.05560289 30.7026794,5.27027532 30.7026794,5.5342176 L30.7026794,23.133525 L30.703372,23.133525 Z M9.9934153,17.142183 C9.9934153,12.1807977 14.0287861,8.1447342 18.9901253,8.1447342 C23.9522032,8.1447342 27.9882205,12.1807977 27.9882205,17.142183 C27.9882205,22.1035221 23.9522032,26.1395856 18.9901253,26.1395856 C14.0287861,26.1395856 9.9934153,22.1035221 9.9934153,17.142183 L9.9934153,17.142183 Z M4.89211659,3.24088427 C4.89211659,2.97694199 5.10752785,2.76222338 5.37077749,2.76222338 L8.22648889,2.76222338 C8.48973853,2.76222338 8.70441097,2.97694199 8.70441097,3.24088427 L8.70441097,3.76655238 L4.89211659,3.76655238 L4.89211659,3.24088427 Z M30.2248035,3.76655238 L26.2524629,3.76655238 L25.8133749,1.71430418 C25.7725091,0.774390765 24.9960127,0.0221829726 24.0464023,0.0221829726 L17.1179175,0.0221829726 C16.1689997,0.0221829726 15.3918569,0.774390765 15.353069,1.71430418 L14.9125495,3.76655238 L9.9934153,3.76655238 L9.9934153,3.24088427 C9.9934153,2.26564618 9.2003417,1.47252641 8.22584242,1.47252641 L5.37077749,1.47252641 C4.39618586,1.47252641 3.60311227,2.26564618 3.60311227,3.24088427 L3.60311227,3.76655238 L1.76761443,3.76655238 C0.793068975,3.76655238 -4.61760462e-06,4.55967215 -4.61760462e-06,5.5342176 L-4.61760462e-06,23.133525 C-4.61760462e-06,24.1087631 0.793068975,24.9018367 1.76761443,24.9018367 L12.2583504,24.9018367 C14.0640646,26.4713143 16.4155798,27.4285899 18.9901253,27.4285899 C21.5653633,27.4285899 23.9168785,26.4706678 25.722639,24.9018367 L30.2248035,24.9018367 C31.1986563,24.9018367 31.9923763,24.1087631 31.9923763,23.133525 L31.9923763,5.5342176 C31.9923763,4.55967215 31.1986563,3.76655238 30.2248035,3.76655238 L30.2248035,3.76655238 Z" id="Fill-3"></path>
                </g>
                <path d="M18.7241558,3.74349206 L22.2088312,3.74349206 L22.2088312,3.13743146 L18.7241558,3.13743146 L18.7241558,3.74349206 Z M22.8536797,1.84773449 L18.0793074,1.84773449 C17.7226436,1.84773449 17.4344589,2.13656566 17.4344589,2.49258297 L17.4344589,4.38764791 C17.4344589,4.74366522 17.7226436,5.03249639 18.0793074,5.03249639 L22.8536797,5.03249639 C23.2097431,5.03249639 23.4985281,4.74366522 23.4985281,4.38764791 L23.4985281,2.49258297 C23.4978355,2.13656566 23.2090043,1.84773449 22.8536797,1.84773449 L22.8536797,1.84773449 Z" id="Fill-6"></path>
            </g>
        </g>
    </g>
</svg>
