<?xml version="1.0" encoding="UTF-8" standalone="no"?>
<svg width="28px" height="29px" viewBox="0 0 28 29" version="1.1" xmlns="http://www.w3.org/2000/svg" xmlns:xlink="http://www.w3.org/1999/xlink">
    <!-- Generator: sketchtool 3.8.3 (29802) - http://www.bohemiancoding.com/sketch -->
    <title>B2679FD6-8BC1-4ABD-ABBD-65EA554134E3</title>
    <desc>Created with sketchtool.</desc>
    <defs></defs>
    <g id="Design" stroke="none" stroke-width="1" fill="none" fill-rule="evenodd">
        <g id="ch_details_owner" transform="translate(-308.000000, -269.000000)" fill="#4A4A4A">
            <g id="Settings" transform="translate(308.000000, 269.000000)">
                <path d="M12.2245892,2.28152044 C12.2224151,2.28905157 12.2179351,2.29724331 12.217408,2.30602962 C12.1270174,2.99407031 12.0341233,3.68178068 11.9481468,4.37015167 C11.8904339,4.83139988 11.6579351,5.15385082 11.2171162,5.30579451 C10.7151586,5.47854789 10.2275633,5.68301125 9.74978447,5.91489054 C9.35593976,6.10587716 8.97474447,6.06273836 8.625568,5.7978939 C8.23119624,5.49863088 7.84123859,5.19414893 7.44871153,4.89184704 C7.27142212,4.75463528 7.09353976,4.61808414 6.91097976,4.47776745 C5.97505506,5.21680836 5.142368,6.04919555 4.41160094,6.98483839 C4.43577976,7.01753932 4.45369976,7.04185031 4.47181741,7.06543461 C4.89010447,7.61091248 5.31023624,8.15553152 5.72621741,8.70259488 C5.98473976,9.04275057 6.04027859,9.41831574 5.85646682,9.80438485 C5.61737976,10.3061954 5.40523859,10.8177172 5.22043859,11.3417908 C5.08307388,11.7316255 4.79062212,11.9625799 4.38531388,12.0214415 C3.69433976,12.1213941 3.00165271,12.2073413 2.30889976,12.2935529 C2.22667859,12.3035944 2.20315859,12.3362953 2.19874447,12.4080391 C2.16896565,12.9148705 2.12627388,13.4210411 2.10934212,13.9285331 C2.08957741,14.5360436 2.12969976,15.1422989 2.19815153,15.7463082 C2.20473976,15.8007436 2.19973271,15.856104 2.28320565,15.8665419 C2.94295153,15.9498466 3.60151153,16.043259 4.26198212,16.1203539 C4.76301741,16.1792156 5.09941271,16.4277426 5.25687153,16.9138303 C5.413408,17.3970773 5.61573271,17.8611001 5.83854682,18.3175918 C6.03685271,18.7224887 5.99290918,19.1104076 5.72055153,19.4678056 C5.33652329,19.9723908 4.94939859,20.4736068 4.56411859,20.9766065 C4.512928,21.0426689 4.46246212,21.109392 4.41008565,21.1779649 C5.14704565,22.1157878 5.97657035,22.949232 6.90933271,23.6835164 C6.94293271,23.6586769 6.97185506,23.637603 7.00031624,23.6161987 C7.54186918,23.1986839 8.08249976,22.7793193 8.62622682,22.3643809 C8.95939388,22.1099082 9.32991624,22.0510466 9.70893741,22.2297456 C10.2188009,22.4704112 10.736768,22.6871622 11.2673186,22.8774881 C11.6431774,23.0121895 11.8696809,23.2975134 11.9302268,23.6954077 C11.9980856,24.1406687 12.0503962,24.5886384 12.108768,25.0350886 C12.1461233,25.3179021 12.1831492,25.6003852 12.2198456,25.8810186 C12.2374362,25.8869642 12.2480433,25.8926456 12.2600339,25.8936365 C12.4448339,25.913125 12.6293045,25.9367093 12.814368,25.9508466 C13.7707162,26.021071 14.725088,26.0112938 15.6782739,25.9002428 C15.7341421,25.8936365 15.7595068,25.8791028 15.7673468,25.8165416 C15.8527304,25.1401279 15.9443727,24.4643749 16.0303492,23.7882915 C16.0893139,23.3232777 16.3277421,23.0043281 16.7732386,22.8523183 C17.2610974,22.6855767 17.736768,22.4904942 18.1983398,22.2592755 C18.6105656,22.053557 19.0036856,22.0953745 19.3695304,22.3769328 C19.7761562,22.6900028 20.1824527,23.0039978 20.5890786,23.3170018 C20.7471962,23.4387549 20.9059727,23.5605081 21.0615868,23.6800151 C21.0754221,23.6728143 21.0810221,23.6706342 21.0856998,23.667199 C21.9956009,22.9514121 22.8085233,22.1378527 23.5267068,21.2292294 C23.5706504,21.1741993 23.5445609,21.1468495 23.5141233,21.1075423 C23.0883256,20.5525514 22.659168,19.9998067 22.2384433,19.4417109 C21.992768,19.115098 21.9407209,18.7486495 22.1138598,18.3786336 C22.3557798,17.8617607 22.5722033,17.3363659 22.7664904,16.799344 C22.9051068,16.4151247 23.2016433,16.195533 23.606688,16.139512 C24.2536527,16.0499313 24.9015398,15.9684763 25.548768,15.8837842 C25.7609092,15.8558397 25.7609092,15.8555094 25.7903586,15.6412688 C25.7938504,15.6172881 25.7966833,15.5937699 25.7988574,15.5691947 C25.8747539,14.8147612 25.8935962,14.0572228 25.8518927,13.2999486 C25.8348951,12.9969861 25.8029421,12.6949485 25.7765892,12.3926466 C25.7725045,12.3448174 25.7677609,12.3048496 25.6981233,12.2960632 C25.0116292,12.2091911 24.3257939,12.1176946 23.6396292,12.0276514 C23.2007209,11.970111 22.8941704,11.735391 22.7479115,11.3185368 C22.5700292,10.8107806 22.3686927,10.3146514 22.1330315,9.83074378 C21.9416433,9.43595443 21.9865092,9.0543115 22.2506974,8.70358582 C22.4668574,8.41568555 22.6883539,8.1312866 22.9076104,7.84530214 C23.1266692,7.55964799 23.3459915,7.27399385 23.567488,6.98450808 C22.8317139,6.04701549 22.0009374,5.2114573 21.0678456,4.47809776 C21.0349045,4.50260694 21.0103962,4.52057593 20.9868762,4.53847886 C20.4428198,4.95790952 19.8994221,5.3785293 19.3541798,5.79597808 C19.0268762,6.04635487 18.6605045,6.11307797 18.2886645,5.93939972 C17.7637798,5.69496856 17.2309892,5.47478233 16.6882504,5.2750094 C16.3236574,5.14030801 16.1052574,4.85656968 16.0482033,4.4695757 C15.9681562,3.93189321 15.9038551,3.39209672 15.8326362,2.85282873 C15.8075351,2.66025662 15.7821045,2.46775056 15.7570033,2.27867976 C14.9996198,2.13334231 12.7780009,2.13585269 12.2245892,2.28152044 M13.4399868,0.0660492631 L14.5374551,0.0660492631 C14.5578786,0.0698148242 14.5783021,0.0764210718 14.5986598,0.0777423213 C14.8500009,0.0924742533 15.1016056,0.101590875 15.3526174,0.12147568 C15.8872527,0.164218102 16.4200433,0.226779266 16.9423586,0.353354969 C17.3705939,0.456808806 17.6790551,0.804759865 17.736768,1.24295227 C17.8337468,1.97855793 17.9303304,2.71409753 18.0226315,3.4502317 C18.0311304,3.51913486 18.059328,3.54628654 18.1192809,3.56828534 C18.2406362,3.61261327 18.3608715,3.65978187 18.475968,3.71580285 C18.5419162,3.74784315 18.5861233,3.74255815 18.6438362,3.69783386 C19.2076574,3.25964146 19.7739821,2.82488431 20.3393186,2.38913622 C20.7751304,2.05340672 21.2100198,2.03358797 21.6686927,2.33344555 C22.4831962,2.86663579 23.2110645,3.50592237 23.8959774,4.19462368 C24.5705468,4.87295317 25.1955068,5.59336447 25.7172951,6.39873211 C26.0018409,6.83831182 25.9792433,7.28595116 25.6595821,7.70280538 C25.2193562,8.27695435 24.7797892,8.85143364 24.338048,9.42432743 C24.2997704,9.47341185 24.2947633,9.51119959 24.3207868,9.56774906 C24.3765892,9.68738821 24.4280433,9.8094056 24.4710645,9.93366912 C24.4952433,10.0029026 24.5325327,10.0305828 24.6028292,10.0391048 C25.3135021,10.1296765 26.0228574,10.2246743 26.7332009,10.3143872 C27.2449092,10.3787981 27.5834786,10.6770702 27.6960715,11.1826463 C27.8381798,11.8206777 27.9040621,12.4687506 27.9401656,13.120589 C27.9809468,13.8599602 27.9756104,14.5989351 27.9213892,15.3376457 C27.8789609,15.9039332 27.813408,16.4680407 27.6866504,17.0223709 C27.5856527,17.4656501 27.2370692,17.7783238 26.7864998,17.8381104 C26.0527021,17.9337688 25.3194315,18.0303522 24.5852386,18.12535 C24.5268668,18.1328811 24.4983398,18.1565315 24.4779821,18.2118919 C24.4321939,18.3386658 24.3804104,18.4641845 24.3236198,18.5860037 C24.2937751,18.6485648 24.3000998,18.6897878 24.3424621,18.7448179 C24.7801186,19.3105108 25.2140198,19.8777233 25.6485798,20.4449357 C25.9868198,20.8863651 26.0052668,21.3211223 25.702208,21.7858057 C25.1857562,22.577036 24.5714692,23.2861506 23.9079021,23.9547029 C23.2173233,24.6500104 22.4828668,25.2955069 21.6605233,25.8329251 C21.2115351,26.1267049 20.7688056,26.1056971 20.3453139,25.7784896 C19.7729939,25.3373905 19.2007398,24.8954325 18.6262456,24.4558528 C18.5992998,24.4351092 18.5481092,24.4213021 18.5180009,24.4325988 C18.3721374,24.4857131 18.2281186,24.5461602 18.0866692,24.6100426 C18.0609092,24.6219999 18.0329751,24.6578719 18.0291539,24.6858824 C17.9300668,25.426773 17.8327586,26.1685886 17.7377562,26.9104041 C17.6812292,27.3518336 17.3672339,27.7104867 16.9332668,27.8110999 C16.3070551,27.9567676 15.6695115,28.0231604 15.0291351,28.0637889 C14.8113939,28.0775959 14.5926645,28.0885623 14.3749892,28.1002553 L13.6015962,28.1002553 C13.5241186,28.094574 13.4466409,28.0867125 13.3694268,28.0835415 C12.6104621,28.0561917 11.8568339,27.9854388 11.1122974,27.8284083 C10.6335962,27.7277951 10.3016151,27.3838739 10.2401468,26.9180013 C10.1422456,26.17645 10.046848,25.4343041 9.94743153,24.6937438 C9.94295153,24.6610429 9.91001035,24.6198199 9.87990212,24.6059468 C9.75255153,24.5467548 9.61953506,24.4999165 9.49185506,24.4413851 C9.43282447,24.4139692 9.39237271,24.4181311 9.33933741,24.4596844 C8.77083859,24.9010478 8.19977035,25.3395705 7.62975624,25.7790842 C7.20586918,26.1059613 6.76406212,26.1255158 6.31415153,25.8322645 C5.49839624,25.2999991 4.77118682,24.6607126 4.08535153,23.9720112 C3.40669741,23.2896519 2.77758682,22.5647484 2.25303153,21.7536994 C1.97757741,21.3277946 1.99892329,20.8738133 2.30731859,20.471757 C2.74530447,19.8997221 3.18335624,19.3271586 3.62410918,18.7573697 C3.67523388,18.6913073 3.68215153,18.6419586 3.64453271,18.5671098 C3.58550212,18.4497168 3.53846212,18.325123 3.49359624,18.2011897 C3.47541271,18.1505198 3.44688565,18.1328811 3.39694682,18.1266713 C2.68976565,18.0353729 1.98324329,17.9416303 1.27540329,17.8519174 C0.708749176,17.7796451 0.384015059,17.4826282 0.267996235,16.9229469 C0.0947915294,16.0870584 0.0292385882,15.2404017 0.0128997647,14.3881958 C0.0109891765,14.2928016 0.00440094118,14.1968789 -1.31764702e-05,14.1015507 L-1.31764702e-05,14.0653485 C0.00347858824,14.0386592 0.00881505882,14.0124985 0.00973741177,13.9858092 C0.0247585882,13.6044306 0.0314127059,13.2221931 0.0555256471,12.8416072 C0.0916291765,12.2683831 0.162518588,11.6992548 0.289605647,11.1382523 C0.384344471,10.7211338 0.721266824,10.3951816 1.12855153,10.333215 C1.44827859,10.2844609 1.76958682,10.2466731 2.09056565,10.2048556 C2.52413741,10.1475794 2.95770918,10.0903032 3.39167624,10.0356035 C3.44971859,10.0284027 3.47758682,10.004422 3.49801035,9.94906167 C3.54505035,9.81977741 3.59749271,9.69207864 3.65553506,9.5671545 C3.68182212,9.51020865 3.67648565,9.47275122 3.63853741,9.42366681 C3.19837741,8.85334945 2.76072094,8.28098417 2.32201035,7.70941163 C1.99483859,7.28344078 1.97316329,6.83950095 2.26429741,6.39054036 C2.79866918,5.56753404 3.439968,4.83391025 4.13140329,4.14302888 C4.81038682,3.46502969 5.53107388,2.83644524 6.33800094,2.31323043 C6.76287624,2.0379481 7.21529035,2.06159846 7.61592094,2.37090297 C8.191008,2.81444644 8.76583153,3.25805596 9.34249976,3.69941936 C9.37227859,3.72181454 9.42597271,3.73938716 9.45759624,3.72802441 C9.60418447,3.6755708 9.74721506,3.61452908 9.88905976,3.55064666 C9.91501741,3.5389536 9.94328094,3.50341199 9.94710212,3.4754015 C10.0449374,2.74897852 10.1412574,2.02255554 10.2338221,1.295538 C10.2993751,0.782430748 10.6018409,0.444521186 11.1041939,0.334725351 C11.6968056,0.205110774 12.2979821,0.138717986 12.9022551,0.0997411256 C13.082048,0.0896335669 13.2608527,0.0777423213 13.4399868,0.0660492631" id="Fill-1"></path>
                <path d="M13.9875153,9.48910169 C11.4687671,9.48976231 9.41119529,11.5497885 9.41053647,14.0716574 C9.40961412,16.6117596 11.4540094,18.6665008 13.9859341,18.6708609 C16.5081741,18.6753532 18.5669976,16.6159216 18.5678541,14.0867857 C18.5681835,11.5501188 16.51384,9.48817681 13.9875153,9.48910169 M13.9909412,20.7743562 C10.3094353,20.7746865 7.31310588,17.7702312 7.31541176,14.0795189 C7.31725647,10.3857677 10.3104235,7.38818284 13.9956188,7.39009865 C17.67304,7.3919484 20.6656141,10.396734 20.6624518,14.0832844 C20.6587624,17.7732701 17.6677035,20.7736956 13.9909412,20.7743562" id="Fill-4"></path>
            </g>
        </g>
    </g>
</svg>