<?xml version="1.0" encoding="UTF-8" standalone="no"?>
<svg width="24px" height="24px" viewBox="0 0 24 24" version="1.1" xmlns="http://www.w3.org/2000/svg" xmlns:xlink="http://www.w3.org/1999/xlink">
    <!-- Generator: sketchtool 3.8.1 (29687) - http://www.bohemiancoding.com/sketch -->
    <title>4D9EF167-30DC-4F7A-8FFE-BA9BC9E3157B</title>
    <desc>Created with sketchtool.</desc>
    <defs></defs>
    <g id="Design" stroke="none" stroke-width="1" fill="none" fill-rule="evenodd">
        <g id="main_chalanges_watch" transform="translate(-13.000000, -27.000000)" fill="#4A4A4A">
            <g id="Search" transform="translate(13.000000, 27.000000)">
                <g id="Icon">
                    <path d="M2.93009391,22.9533843 L1.03200696,21.0552974 L6.75913739,15.3270887 L7.70713739,16.2751235 C7.70713739,16.2751235 7.70713739,16.2761322 7.70818087,16.2761322 C7.70818087,16.2772104 7.70918957,16.2772104 7.70918957,16.2772104 L8.65722435,17.2251757 L2.93009391,22.9533843 Z M9.68713739,3.2754713 C11.1594852,1.80312348 13.1164939,0.992862609 15.1987896,0.992862609 C17.2810504,0.992862609 19.2380591,1.80361043 20.7109635,3.2754713 C23.7484939,6.31408 23.7484939,11.2591235 20.70992,14.2987757 C19.2380591,15.7700452 17.280007,16.5803061 15.1987896,16.5803061 C13.1175722,16.5803061 11.1594852,15.7700452 9.68818087,14.2987757 L9.68713739,14.2976974 C9.68713739,14.2976974 9.68605913,14.2976974 9.68605913,14.2966539 C8.21478957,12.8253496 7.40400696,10.8677843 7.40400696,8.78660174 C7.40400696,6.70482783 8.2153113,4.74729739 9.68713739,3.2754713 L9.68713739,3.2754713 Z M7.39409391,14.558567 C7.05496348,14.2194365 6.46539826,14.218393 6.12418087,14.558567 L0.263485217,20.4208278 C0.0928765217,20.5893496 6.95652176e-06,20.8152626 6.95652176e-06,21.0557843 C6.95652176e-06,21.2952974 0.0928765217,21.5211757 0.262441739,21.6897322 L2.29513739,23.722393 C2.46470261,23.8919583 2.68957217,23.986393 2.93009391,23.986393 C3.16957217,23.986393 3.39548522,23.8919583 3.56400696,23.722393 L9.42678957,17.8606887 C9.77579826,17.5106017 9.77579826,16.9413496 9.42678957,16.5912974 L8.76105043,15.9255235 L9.35322435,15.3344278 C10.96432,16.7770365 13.0184417,17.5737322 15.1982678,17.5737322 C17.5450504,17.5737322 19.752007,16.6601322 21.4111374,15.00048 C24.8368765,11.5742539 24.8368765,5.9994713 21.4121461,2.57369739 C19.7514852,0.91408 17.5450504,-6.95652176e-06 15.1982678,-6.95652176e-06 C12.8514852,-6.95652176e-06 10.6445287,0.913523478 8.98487652,2.57369739 C7.32518957,4.23338435 6.41113739,6.43978435 6.41113739,8.78712348 C6.41113739,10.9669496 7.20887652,13.0205148 8.65148522,14.6326539 L8.0593113,15.2243409 L7.39409391,14.558567 Z" id="Fill-1"></path>
                </g>
            </g>
        </g>
    </g>
</svg>