<?xml version="1.0" encoding="UTF-8" standalone="no"?>
<svg width="26px" height="26px" viewBox="0 0 26 26" version="1.1" xmlns="http://www.w3.org/2000/svg" xmlns:xlink="http://www.w3.org/1999/xlink">
    <!-- Generator: sketchtool 3.8.1 (29687) - http://www.bohemiancoding.com/sketch -->
    <title>6C6B56FA-6B8B-4F13-84B6-CC8ED3AA4695</title>
    <desc>Created with sketchtool.</desc>
    <defs></defs>
    <g id="Design" stroke="none" stroke-width="1" fill="none" fill-rule="evenodd">
        <g id="yourprofile" transform="translate(-334.000000, -27.000000)" fill="#4A4A4A">
            <g id="Settings-Copy" transform="translate(334.000000, 27.000000)">
                <path d="M10.9966729,2.05234986 C10.9947171,2.05912451 10.9906871,2.06649343 10.990213,2.07439718 C10.9089018,2.69332664 10.8253386,3.31195896 10.7479981,3.93118554 C10.6960823,4.34610301 10.4869371,4.63616491 10.090397,4.7728464 C9.63885918,4.92824732 9.20024109,5.11217307 8.77045344,5.32076091 C8.41616903,5.4925636 8.07326344,5.45375794 7.7591605,5.21551616 C7.40440197,4.94631305 7.05361418,4.67241522 6.70051506,4.40047848 C6.54103374,4.27704915 6.38101903,4.15421408 6.21679653,4.0279917 C5.37488212,4.69279859 4.6258355,5.44157546 3.96847138,6.28323632 C3.99022153,6.31265256 4.00634153,6.3345216 4.02263932,6.35573694 C4.39891094,6.8464235 4.77684197,7.33633751 5.15103932,7.82845031 C5.38359403,8.13443857 5.43355418,8.47227957 5.26820565,8.81956941 C5.05313403,9.27097489 4.86230168,9.73111611 4.69606418,10.2025484 C4.57249726,10.5532256 4.30942124,10.7609814 3.94482476,10.8139307 C3.32325653,10.9038433 2.70014741,10.9811575 2.07697903,11.0587094 C2.00301668,11.0677423 1.98185918,11.0971585 1.97788844,11.1616959 C1.95110079,11.6176178 1.91269726,12.0729455 1.89746624,12.5294617 C1.87968682,13.0759499 1.91577903,13.6213091 1.97735506,14.1646477 C1.98328153,14.2136154 1.97877741,14.263415 2.05386579,14.2728044 C2.64734256,14.3477415 3.23975256,14.4317709 3.83388124,14.5011219 C4.28458932,14.5540711 4.58719491,14.7776345 4.72883756,15.2148964 C4.8696505,15.649603 5.05165241,16.0670164 5.25208565,16.4776552 C5.43047241,16.8418816 5.39094285,17.1908354 5.14594256,17.512334 C4.80048859,17.9662355 4.45224918,18.4171061 4.10566918,18.8695813 C4.0596205,18.929008 4.01422374,18.989029 3.96710829,19.050714 C4.63004329,19.8943359 5.37624521,20.6440636 6.21531491,21.3045918 C6.24553991,21.2822473 6.27155712,21.2632902 6.29715947,21.2440359 C6.78431535,20.868459 7.27064153,20.491218 7.75975315,20.1179587 C8.05945476,19.8890469 8.39275947,19.8360977 8.73370932,19.996847 C9.19235888,20.2133386 9.658298,20.4083177 10.1355567,20.5795262 C10.4736618,20.7006973 10.6774139,20.9573614 10.7318781,21.3152886 C10.7929208,21.7158248 10.839977,22.1187975 10.8924855,22.5204034 C10.9260886,22.7748092 10.9593954,23.0289179 10.9924058,23.2813627 C11.0082295,23.2867111 11.0177711,23.2918218 11.0285573,23.2927132 C11.1947948,23.3102441 11.3607359,23.3314595 11.5272105,23.3441768 C12.387497,23.4073474 13.2460055,23.3985522 14.1034473,23.2986559 C14.1537037,23.2927132 14.1765206,23.2796393 14.1835731,23.2233622 C14.2603802,22.6148919 14.3428174,22.0070158 14.4201579,21.3988426 C14.4731998,20.9805378 14.6876787,20.6936255 15.0884267,20.5568846 C15.5272818,20.4068915 15.955173,20.2314043 16.3703815,20.0234108 C16.7412008,19.8383559 17.0948333,19.875973 17.4239302,20.1292498 C17.789712,20.4108731 18.1551974,20.6933284 18.5209792,20.9748922 C18.6632145,21.0844157 18.8060424,21.1939392 18.9460256,21.3014422 C18.9584712,21.2949646 18.9635087,21.2930036 18.9677165,21.2899134 C19.7862214,20.6460247 20.5174886,19.9141844 21.1635331,19.0968291 C21.2030627,19.0473266 21.1795939,19.022724 21.1522136,18.9873651 C20.7691858,18.4881211 20.3831355,17.9908976 20.0046711,17.4888605 C19.783673,17.1950547 19.7368539,16.8654146 19.8926015,16.5325655 C20.1102215,16.0676107 20.3049061,15.5949898 20.4796777,15.1119099 C20.6043706,14.766284 20.8711211,14.5687495 21.2354805,14.5183557 C21.8174599,14.437773 22.400269,14.3644999 22.9824855,14.2883148 C23.1733179,14.2631773 23.1733179,14.2628801 23.1998092,14.0701592 C23.2029502,14.0485873 23.2054986,14.0274314 23.2074543,14.0053247 C23.2757273,13.3266713 23.292677,12.645225 23.2551624,11.9640163 C23.2398721,11.6914853 23.2111287,11.4197862 23.1874229,11.1478495 C23.1837484,11.1048245 23.1794814,11.0688714 23.1168386,11.0609676 C22.4993004,10.9828214 21.8823548,10.9005154 21.2651129,10.8195168 C20.8702914,10.7677561 20.5945327,10.5566129 20.4629651,10.1816302 C20.3029504,9.7248763 20.1218374,9.27858152 19.9098476,8.84328068 C19.7376836,8.4881465 19.7780429,8.14483825 20.0156943,7.82934171 C20.2101418,7.57036 20.4093898,7.3145279 20.6066227,7.05726956 C20.8036779,6.80030835 21.0009701,6.54334715 21.200218,6.28293919 C20.5383498,5.43961438 19.7910218,4.68798503 18.9516558,4.02828883 C18.9220234,4.05033615 18.899977,4.06650022 18.8788195,4.08260487 C18.3894115,4.45990521 17.9005962,4.83827524 17.4101215,5.21379278 C17.1156945,5.43902011 16.7861234,5.49904112 16.4516334,5.34280823 C15.9794715,5.12292931 15.5001979,4.92486 15.0119752,4.74515355 C14.6840043,4.62398243 14.4875418,4.3687446 14.4362186,4.02062278 C14.364212,3.53694858 14.3063696,3.05137272 14.2423045,2.56627228 C14.2197246,2.39304334 14.1968484,2.21987383 14.1742686,2.04979451 C13.4929615,1.9190557 11.4944964,1.92131391 10.9966729,2.05234986 M12.0899881,0.0594148505 L13.0772196,0.0594148505 C13.0955917,0.0628021745 13.1139637,0.068744848 13.1322765,0.0699333828 C13.3583714,0.0831855448 13.5847033,0.0913864344 13.8105018,0.109273882 C14.2914349,0.14772298 14.7707086,0.204000099 15.2405592,0.317861725 C15.6257798,0.410923993 15.9032571,0.723924611 15.955173,1.11810215 C16.0424106,1.77981885 16.1292927,2.44147613 16.2123226,3.10366825 C16.2199677,3.16565033 16.245333,3.19007472 16.2992639,3.20986383 C16.4084295,3.24973916 16.5165876,3.29216985 16.620123,3.34256373 C16.679447,3.37138569 16.7192136,3.36663155 16.7711295,3.32639965 C17.2783168,2.93222212 17.7877562,2.54113477 18.2963067,2.14915602 C18.6883427,1.84714935 19.079549,1.82932132 19.4921499,2.09905928 C20.2248395,2.57869246 20.8795959,3.15376499 21.4957118,3.77328871 C22.1025231,4.38348243 22.6647081,5.03153099 23.1340846,5.75600232 C23.3900489,6.15142782 23.3697211,6.55410339 23.0821687,6.92908609 C22.686162,7.44556385 22.2907479,7.96233874 21.893378,8.4776874 C21.8589452,8.52184146 21.8544411,8.55583356 21.8778506,8.60670284 C21.9280479,8.71432466 21.9743336,8.82408584 22.0130334,8.93586753 C22.0347836,8.99814675 22.0683274,9.02304655 22.1315629,9.0307126 C22.7708512,9.11218666 23.4089543,9.1976423 24.0479464,9.27834381 C24.5082554,9.33628488 24.8128167,9.60459659 24.9141001,10.0593894 C25.041934,10.6333328 25.1011987,11.2163091 25.1336758,11.8026727 C25.1703606,12.4677767 25.1655602,13.1325242 25.1167854,13.797034 C25.0786189,14.3064399 25.0196505,14.8138848 24.9056252,15.3125346 C24.8147724,15.711288 24.5012029,15.9925547 24.0958915,16.0463359 C23.4358012,16.1323858 22.7761851,16.2192677 22.1157392,16.3047234 C22.0632306,16.311498 22.037569,16.3327728 22.0192562,16.3825724 C21.9780673,16.4966123 21.9314852,16.6095231 21.880399,16.719106 C21.8535521,16.7753831 21.8592415,16.8124654 21.8973487,16.8619679 C22.2910442,17.370839 22.6813615,17.8810769 23.0722715,18.3913149 C23.3765365,18.7884043 23.3931306,19.1794917 23.120513,19.5974994 C22.655937,20.3092534 22.1033529,20.94714 21.5064387,21.5485385 C20.8852261,22.1740049 20.2245431,22.7546636 19.4848011,23.2381 C19.0809121,23.5023707 18.6826533,23.483473 18.3016998,23.1891324 C17.7868673,22.7923401 17.272094,22.3947752 16.7553058,21.9993497 C16.7310665,21.9806897 16.6850179,21.9682696 16.6579339,21.9784315 C16.5267218,22.0262106 16.3971692,22.0805861 16.2699279,22.1380517 C16.2467554,22.148808 16.2216271,22.1810767 16.2181898,22.2062736 C16.1290556,22.8727445 16.0415217,23.5400473 15.956062,24.2073501 C15.9052129,24.6044396 15.6227573,24.9270673 15.2323806,25.0175742 C14.6690696,25.1486102 14.0955651,25.208334 13.5195121,25.2448815 C13.3236423,25.2573017 13.1268834,25.2671665 12.9310729,25.2776851 L12.2353645,25.2776851 C12.1656692,25.2725744 12.0959739,25.2655026 12.0265156,25.2626501 C11.3437862,25.2380474 10.6658573,25.1744014 9.99610682,25.033144 C9.56548947,24.9426371 9.26685462,24.6332615 9.21156065,24.2141842 C9.12349329,23.5471191 9.037678,22.8795191 8.94824756,22.2133454 C8.94421756,22.1839292 8.91458521,22.1468469 8.88750124,22.1343673 C8.77294256,22.0811209 8.65328712,22.0389874 8.53843212,21.9863353 C8.48533094,21.9616732 8.44894241,21.9654171 8.40123432,22.0027965 C7.88983918,22.3998265 7.37613271,22.7943012 6.86337447,23.1896673 C6.48206535,23.4837107 6.08463624,23.5013011 5.67991756,23.2375058 C4.94610197,22.7587046 4.29193815,22.183632 3.67499256,21.5641083 C3.06450682,20.9502896 2.49858815,20.2982 2.02672256,19.568618 C1.77893682,19.1854938 1.79813859,18.7771133 2.07555668,18.4154422 C2.46954844,17.900866 2.86359947,17.3858145 3.26008035,16.8732589 C3.30606976,16.8138322 3.31229256,16.7694404 3.27845241,16.7021099 C3.22535124,16.5965086 3.18303624,16.4844298 3.14267697,16.3729452 C3.12631991,16.3273649 3.10065829,16.311498 3.05573565,16.3059119 C2.41958829,16.2237841 1.78403359,16.1394576 1.14729359,16.0587561 C0.637557853,15.9937432 0.345442118,15.7265606 0.241076971,15.2230973 C0.0852700588,14.4711708 0.0263016765,13.7095578 0.0116040294,12.9429529 C0.00988535294,12.8571407 0.00395888235,12.7708531 -1.1852941e-05,12.6851003 L-1.1852941e-05,12.6525344 C0.00312917647,12.628526 0.00792961765,12.6049931 0.00875932353,12.5809847 C0.0222716765,12.2379141 0.0282574118,11.894071 0.0499482941,11.5517136 C0.0824253529,11.0360678 0.146194176,10.5241065 0.260515794,10.0194546 C0.345738441,9.64423422 0.648818147,9.35102271 1.01519256,9.29528043 C1.30280418,9.2514235 1.59183815,9.21743141 1.88057579,9.17981428 C2.27059682,9.1282913 2.66061785,9.07676832 3.05099447,9.02756298 C3.10320668,9.02108547 3.12827565,8.99951357 3.14664771,8.94971396 C3.18896271,8.83341584 3.23613741,8.71854396 3.28834962,8.606168 C3.31199624,8.55494215 3.30719579,8.5212472 3.27305932,8.47709313 C2.87711182,7.96406212 2.48341638,7.44918888 2.08877271,6.93502876 C1.79446418,6.55184517 1.77496609,6.1524975 2.03685682,5.74863341 C2.51755285,5.00829513 3.0944355,4.34836123 3.71641859,3.72687643 C4.32720065,3.11697984 4.97549726,2.55153445 5.70137138,2.0808747 C6.08356947,1.83324349 6.49054021,1.85451826 6.85092888,2.13275424 C7.3682505,2.53174534 7.88533506,2.93079587 8.40407903,3.3278259 C8.43086668,3.34797156 8.47916741,3.36377907 8.50761447,3.35355767 C8.63947844,3.30637284 8.76814212,3.25146254 8.89573903,3.19399689 C8.91908932,3.18347835 8.94451388,3.15150677 8.94795124,3.12630983 C9.03595932,2.47285345 9.12260432,1.81939706 9.20587124,1.16540583 C9.26483962,0.703838374 9.53692388,0.39987062 9.98881726,0.301103385 C10.5219033,0.184508129 11.0626937,0.12478426 11.6062696,0.0897224858 C11.768003,0.0806301952 11.9288474,0.0699333828 12.0899881,0.0594148505" id="Fill-1"></path>
                <path d="M12.5825193,8.53595531 C10.3167704,8.53654958 8.46587434,10.3896535 8.46528169,12.6582097 C8.46445199,14.9431677 10.3034951,16.7915175 12.581097,16.7954396 C14.849987,16.7994806 16.702009,14.9469116 16.7027795,12.6718184 C16.7030758,10.3899506 14.8550838,8.53512334 12.5825193,8.53595531 M12.5856011,18.6876463 C9.27388934,18.6879435 6.57853051,15.9852749 6.58060478,12.6652815 C6.58226419,9.3425544 9.27477831,6.64606626 12.5898089,6.64778963 C15.8978462,6.64945358 18.589827,9.35241924 18.5869823,12.6686688 C18.5836635,15.9880086 15.8930458,18.6870521 12.5856011,18.6876463" id="Fill-4"></path>
            </g>
        </g>
    </g>
</svg>