<?xml version="1.0" encoding="UTF-8" standalone="no"?>
<svg width="25px" height="26px" viewBox="0 0 25 26" version="1.1" xmlns="http://www.w3.org/2000/svg" xmlns:xlink="http://www.w3.org/1999/xlink">
    <!-- Generator: sketchtool 3.8.3 (29802) - http://www.bohemiancoding.com/sketch -->
    <title>37110F13-C097-4F2C-A89B-B8ECC2AF16E0</title>
    <desc>Created with sketchtool.</desc>
    <defs></defs>
    <g id="Design" stroke="none" stroke-width="1" fill="none" fill-rule="evenodd">
        <g id="Completion_alert" transform="translate(-269.000000, -158.000000)">
            <g id="Icon" transform="translate(269.000000, 158.500000)">
                <path d="M12.5,25 C19.4035,25 25,19.4035 25,12.5 C25,5.5965 19.4035,0 12.5,0 C5.5965,0 0,5.5965 0,12.5 C0,19.4035 5.5965,25 12.5,25" id="Fill-1" fill="#000000"></path>
                <path d="M12.5,23.5 C18.575,23.5 23.5,18.575 23.5,12.5 C23.5,6.425 18.575,1.5 12.5,1.5 C6.425,1.5 1.5,6.425 1.5,12.5 C1.5,18.575 6.425,23.5 12.5,23.5" id="Fill-3" fill="#FFFFFF"></path>
                <path d="M13.40725,18 L13.40725,12.4995 L15.03425,12.4995 L15.25025,10.604 L13.40725,10.604 L13.41025,9.655 C13.41025,9.1605 13.46025,8.896 14.22125,8.896 L15.23825,8.896 L15.23825,7 L13.61125,7 C11.65675,7 10.96875,7.9195 10.96875,9.466 L10.96875,10.604 L9.75025,10.604 L9.75025,12.4995 L10.96875,12.4995 L10.96875,18 L13.40725,18 Z" id="Fill-5" fill="#000000"></path>
            </g>
        </g>
    </g>
</svg>