<?xml version="1.0" encoding="UTF-8" standalone="no"?>
<svg width="28px" height="24px" viewBox="0 0 28 24" version="1.1" xmlns="http://www.w3.org/2000/svg" xmlns:xlink="http://www.w3.org/1999/xlink">
    <!-- Generator: sketchtool 3.8.1 (29687) - http://www.bohemiancoding.com/sketch -->
    <title>C93BBF87-2A80-49CD-B9AA-526B63475AA5</title>
    <desc>Created with sketchtool.</desc>
    <defs></defs>
    <g id="Design" stroke="none" stroke-width="1" fill="none" fill-rule="evenodd">
        <g id="ch_details" transform="translate(-309.000000, -346.000000)" stroke="#4A4A4A" stroke-width="2">
            <g id="Page-1" transform="translate(310.000000, 347.000000)">
                <path d="M3.09101339,12.3123213 C-0.303591781,15.9343579 -0.00178250637,21.2707093 0.0127728345,21.4959577 C0.0319659066,21.7811057 0.268490196,22 0.548894558,22 C0.560310512,22 0.572154563,21.9990719 0.583570517,21.9990719 C0.879957214,21.9802952 1.1059931,21.7244188 1.08729947,21.4279191 C1.08408873,21.3763012 0.805539466,16.319529 3.88192493,13.0438966 C5.64911455,11.1608774 8.19437277,10.2068381 11.4493466,10.2068381 L24.1667189,10.2068381 L15.3617366,19.8159119 C15.1608871,20.0348062 15.1755138,20.3756416 15.394272,20.576616 C15.4974437,20.6721413 15.6275856,20.718833 15.7581556,20.718833 C15.9033522,20.718833 16.0481208,20.6597901 16.1545032,20.544203 L25.7868568,10.0318512 C25.9854944,9.81524153 25.9740784,9.47940371 25.760386,9.2765731 L16.1285319,0.146268107 C15.9119855,-0.0565625117 15.5723609,-0.0474240678 15.3673018,0.167329364 C15.1631703,0.383010919 15.1727312,0.72384632 15.38835,0.929032943 L24.0397164,9.12893011 L11.4489185,9.12893011 C7.88164699,9.12893011 5.0696122,10.1999843 3.09101339,12.3123213" id="Fill-1"></path>
            </g>
        </g>
    </g>
</svg>
