<?xml version="1.0" encoding="UTF-8" standalone="no"?>
<svg width="36px" height="31px" viewBox="0 0 36 31" version="1.1" xmlns="http://www.w3.org/2000/svg" xmlns:xlink="http://www.w3.org/1999/xlink">
    <!-- Generator: sketchtool 3.8.1 (29687) - http://www.bohemiancoding.com/sketch -->
    <title>0A4E2AB1-CB4D-41AE-A240-B6400B05CE7F</title>
    <desc>Created with sketchtool.</desc>
    <defs>
        <path d="M0,15.2051 C0,23.5871 6.82,30.4081 15.203,30.4081 C23.588,30.4081 30.407,23.5871 30.407,15.2051 C30.407,12.5341 29.71,10.0251 28.496,7.8431 L30.611,6.5361 C31.212,7.1761 32.177,7.8021 33.423,7.8021 C34.071,7.8021 34.794,7.6331 35.577,7.2071 C35.757,7.1111 35.887,6.9431 35.935,6.7451 C35.983,6.5471 35.945,6.3371 35.829,6.1701 L34.452,4.1511 C34.754,3.9311 34.847,3.5201 34.648,3.1981 C34.438,2.8591 33.995,2.7531 33.658,2.9641 L30.401,4.9741 L30.399,4.9741 L27.738,6.6181 C24.995,2.6261 20.402,0.0001 15.203,0.0001 C6.82,0.0011 0,6.8201 0,15.2051 L0,15.2051 Z M1.44,15.2041 C1.439,7.6141 7.613,1.4401 15.203,1.4401 C19.885,1.4401 24.023,3.7941 26.511,7.3771 L23.934,8.9671 C21.983,6.2441 18.801,4.4601 15.203,4.4601 C9.279,4.4601 4.459,9.2791 4.459,15.2041 C4.459,21.1281 9.279,25.9481 15.203,25.9481 C21.127,25.9481 25.947,21.1291 25.947,15.2041 C25.947,13.3921 25.491,11.6861 24.696,10.1861 L27.273,8.5961 C28.351,10.5601 28.969,12.8111 28.969,15.2041 C28.969,22.7941 22.793,28.9681 15.204,28.9681 C7.614,28.9681 1.44,22.7931 1.44,15.2041 L1.44,15.2041 Z M31.874,5.7561 L33.232,4.9181 L34.143,6.2521 C33.886,6.3251 33.647,6.3561 33.426,6.3561 C32.735,6.3561 32.217,6.0531 31.874,5.7561 L31.874,5.7561 Z M5.9,15.2051 C5.9,10.0741 10.073,5.9011 15.204,5.9011 C18.285,5.9011 21.013,7.4121 22.708,9.7261 L19.949,11.4291 C18.835,10.0321 17.123,9.1341 15.203,9.1341 C11.857,9.1341 9.135,11.8581 9.135,15.2041 C9.135,18.5511 11.857,21.2731 15.203,21.2731 C18.55,21.2731 21.273,18.5511 21.273,15.2041 C21.273,14.2921 21.065,13.4301 20.703,12.6531 L23.467,10.9461 C24.128,12.2241 24.508,13.6681 24.508,15.2041 C24.508,20.3341 20.334,24.5081 15.204,24.5081 C10.074,24.5081 5.9,20.3341 5.9,15.2051 L5.9,15.2051 Z M10.574,15.2041 C10.574,12.6511 12.65,10.5731 15.203,10.5731 C16.606,10.5731 17.863,11.2021 18.712,12.1911 L16.655,13.4611 C16.26,13.1311 15.758,12.9251 15.203,12.9251 C13.947,12.9251 12.925,13.9471 12.925,15.2031 C12.925,16.4591 13.947,17.4821 15.203,17.4821 C16.46,17.4821 17.482,16.4591 17.482,15.2031 C17.482,15.0241 17.457,14.8511 17.417,14.6821 L19.473,13.4131 C19.704,13.9641 19.834,14.5691 19.834,15.2041 C19.834,17.7561 17.757,19.8341 15.203,19.8341 C12.65,19.8341 10.574,17.7561 10.574,15.2041 L10.574,15.2041 Z M14.363,15.2031 C14.363,14.7471 14.732,14.3761 15.188,14.3681 L14.825,14.5911 C14.488,14.8001 14.382,15.2431 14.591,15.5811 C14.728,15.8021 14.963,15.9231 15.204,15.9231 C15.333,15.9231 15.464,15.8881 15.581,15.8151 L15.929,15.6021 C15.785,15.8591 15.519,16.0431 15.203,16.0431 C14.742,16.0431 14.363,15.6661 14.363,15.2031 L14.363,15.2031 Z" id="path-1"></path>
    </defs>
    <g id="Design" stroke="none" stroke-width="1" fill="none" fill-rule="evenodd">
        <g id="main_chalanges_dismiss" transform="translate(-135.000000, -629.000000)">
            <g id="Goal" transform="translate(135.000000, 627.000000)">
                <g id="Page-1" transform="translate(0.000000, 2.000000)">
                    <mask id="mask-2" fill="white">
                        <use xlink:href="#path-1"></use>
                    </mask>
                    <g id="Clip-2"></g>
                    <polygon id="Fill-1" fill="#4a4a4a" mask="url(#mask-2)" points="-5 35.4081 40.955 35.4081 40.955 -4.9999 -5 -4.9999"></polygon>
                </g>
            </g>
        </g>
    </g>
</svg>