<?xml version="1.0" encoding="UTF-8" standalone="no"?>
<svg width="31px" height="32px" viewBox="0 0 31 32" version="1.1" xmlns="http://www.w3.org/2000/svg" xmlns:xlink="http://www.w3.org/1999/xlink">
    <g id="Design" stroke="none" stroke-width="1" fill="none" fill-rule="evenodd">
        <g id="yourprofile" transform="translate(-39.000000, -1454.000000)" fill="#4a4a4a">
            <g id="Challange_passive" transform="translate(39.000000, 1454.000000)">
                <g id="Icon">
                    <path d="M20.7977694,27.6160754 C20.4475762,26.2457922 19.7066758,24.1470456 18.2427609,22.4140073 C19.7838772,21.5889174 21.5348015,20.4697051 23.2163029,19.0081612 C23.7864119,20.2887643 24.6630388,23.6400786 20.7977694,27.6160754 M18.8425276,12.1854045 C18.5375488,11.8804673 18.0446412,11.8804673 17.739704,12.1854045 L12.905008,17.020142 L9.78454919,13.8996832 C11.1611133,11.2362765 13.4915057,7.7609658 17.0807052,5.36818003 C18.1952172,4.6249086 19.3104779,4.03450093 20.3976615,3.55332326 L27.4699501,10.6248215 C26.9903115,11.7159152 26.3999454,12.8343372 25.658213,13.9472685 C23.2654272,17.538007 19.7901165,19.8683994 17.1275002,21.2433829 L14.0078317,18.1237144 L18.8425276,13.2890184 C19.1474648,12.9832909 19.1474648,12.489593 18.8425276,12.1854045 M11.9503895,7.89511154 C10.5169226,9.55868519 9.41488927,11.2854425 8.60223641,12.8054698 C6.91212479,11.453863 4.92177626,10.7581769 3.60527614,10.4220431 C7.32783102,6.80168852 10.5083123,7.34293021 11.9503895,7.89511154 M28.0993328,9.04705955 L21.9730942,2.92156958 C25.2682544,1.75015485 28.1024525,1.59259079 29.4260239,1.59883012 C29.4267726,2.86150557 29.2739088,5.72303193 28.0993328,9.04705955 M26.9559951,14.8114167 C27.8575793,13.4590196 28.5532654,12.0988441 29.0992074,10.7839246 C29.1132251,10.754267 29.1241648,10.7254412 29.1343141,10.6949933 C31.2728261,5.48439808 30.9795772,1.02090113 30.9608592,0.786925989 C30.9327822,0.406368023 30.6301743,0.100598911 30.2495748,0.0670728735 C30.2488261,0.0662825575 25.6785117,-0.315065724 20.3079815,1.89910862 C20.2915928,1.90455764 20.2775751,1.91079698 20.2611864,1.91703631 C18.9415667,2.46455894 17.5759422,3.16336469 16.2149764,4.07039792 C15.0349513,4.85730311 13.9976823,5.75422861 13.0641111,6.69482947 C11.4395541,5.93437907 6.65943164,4.48452352 1.48469185,10.3955051 C1.29439207,10.6130916 1.23977707,10.91728 1.34272614,11.1879425 C1.4456752,11.457773 1.68900934,11.6480728 1.97601885,11.6839698 C2.01499391,11.6886285 5.86158681,12.1854045 8.28086896,14.6047282 L11.8006454,18.1245047 L10.543419,19.3817311 C10.2384818,19.6866683 10.2384818,20.1795759 10.543419,20.4845547 C10.6954924,20.6366282 10.8951928,20.7130392 11.09481,20.7130392 C11.2944688,20.7130392 11.4941275,20.6366282 11.646201,20.4845547 L12.903469,19.2272867 L16.4216648,22.7463144 C16.4559812,22.7805892 16.4996565,22.7970194 16.5378828,22.8243061 C16.5643792,22.8624909 16.5807679,22.9053759 16.6150427,22.9396923 C19.0242171,25.3488667 19.531184,29.2071063 19.5366746,29.246123 C19.57253,29.5323422 19.7636201,29.7764667 20.0334506,29.878667 C20.1231307,29.9137321 20.2175111,29.9301207 20.3111011,29.9301207 C20.4967422,29.9301207 20.6800123,29.8630686 20.8243074,29.7366597 C27.0916799,24.248414 25.0834037,19.2070297 24.3963279,17.9006789 C25.3150495,16.9819157 26.1885567,15.9641134 26.9559951,14.8114167" id="Fill-1"></path>
                    <path d="M8.85021262,26.3510664 C7.811363,27.3899161 4.2791079,29.4644956 2.36679269,29.4644956 C2.06102358,29.4644956 1.83486841,29.4059707 1.72800936,29.2991532 C1.43555083,29.0066947 1.48234586,27.8656447 2.27395135,26.0492489 C3.01098344,24.3583886 4.06231174,22.7922734 4.67842548,22.1777403 C5.23605583,21.6201099 5.9769979,21.3135921 6.76469341,21.3135921 C7.55243051,21.3135921 8.29333099,21.6208586 8.85179326,22.1777403 C9.40863329,22.7346219 9.71589985,23.4755224 9.71589985,24.2632595 C9.71515113,25.052494 9.40784298,25.7934361 8.85021262,26.3510664 M6.76394469,19.7537578 C5.55975264,19.7537578 4.42652264,20.2232887 3.57485313,21.0749166 C2.7177346,21.9304961 1.56969658,23.7602025 0.843604127,25.4261055 C-0.202275148,27.8266697 -0.276356877,29.5011413 0.62522733,30.4019768 C1.03781389,30.8145634 1.62426998,31.0243299 2.36679269,31.0243299 C4.81881056,31.0243299 8.72779683,28.6798782 9.95378497,27.4538901 C10.8062448,26.6014302 11.2757757,25.4682002 11.2749854,24.2632595 C11.2749854,23.0582771 10.8054961,21.9257958 9.95378497,21.0749166 C9.10136674,20.2224568 7.96892706,19.7529675 6.76394469,19.7537578" id="Fill-4"></path>
                </g>
            </g>
        </g>
    </g>
</svg>