<?xml version="1.0" encoding="UTF-8" standalone="no"?>
<svg width="36px" height="32px" viewBox="0 0 36 32" version="1.1" xmlns="http://www.w3.org/2000/svg" xmlns:xlink="http://www.w3.org/1999/xlink">
    <!-- Generator: sketchtool 3.8.1 (29687) - http://www.bohemiancoding.com/sketch -->
    <title>E0B9EA72-7021-4198-8738-654EDDFF10A0</title>
    <desc>Created with sketchtool.</desc>
    <defs>
        <path d="M0.648,0.528 C0.29,0.528 0,0.818 0,1.176 L0,20.905 L0,25.837 L0,28.581 C0,30.466 1.534,32 3.419,32 L26.749,32 C28.635,32 30.169,30.466 30.169,28.581 L30.169,27.932 L30.169,26.42 L35.065,26.42 C35.424,26.42 35.713,26.129 35.713,25.772 L35.713,20.257 C35.713,18.372 34.18,16.837 32.293,16.837 L24.625,16.837 L24.625,1.176 C24.625,0.818 24.335,0.528 23.977,0.528 L0.648,0.528 L0.648,0.528 Z M1.296,28.581 L1.296,25.837 L1.296,20.905 L1.296,1.824 L23.329,1.824 L23.329,20.905 L23.329,26.99 L23.329,28.581 C23.329,29.382 23.608,30.12 24.074,30.704 L3.419,30.704 C2.249,30.704 1.296,29.751 1.296,28.581 L1.296,28.581 Z M30.169,20.905 L30.169,20.257 C30.169,19.085 31.122,18.133 32.293,18.133 C33.465,18.133 34.417,19.085 34.417,20.257 L34.417,25.124 L30.169,25.124 L30.169,20.905 L30.169,20.905 Z M24.625,28.581 L24.625,26.99 L24.625,20.905 L24.625,18.133 L29.618,18.133 C29.153,18.717 28.873,19.454 28.873,20.257 L28.873,20.905 L28.873,27.932 L28.873,28.581 C28.873,29.751 27.92,30.704 26.749,30.704 C25.577,30.704 24.625,29.751 24.625,28.581 L24.625,28.581 Z" id="path-1"></path>
        <path d="M1.24,0.852 C0.882,0.852 0.592,1.142 0.592,1.5 L0.592,17.485 C0.592,17.844 0.882,18.133 1.24,18.133 L19.385,18.133 C19.743,18.133 20.033,17.844 20.033,17.485 L20.033,1.5 C20.033,1.142 19.743,0.852 19.385,0.852 L1.24,0.852 L1.24,0.852 Z M15.64,4.435 L18.737,4.435 L18.737,2.149 L15.64,2.149 L15.64,4.435 L15.64,4.435 Z M6.784,4.435 L14.344,4.435 L14.344,2.149 L6.784,2.149 L6.784,4.435 L6.784,4.435 Z M1.888,4.435 L5.488,4.435 L5.488,2.149 L1.888,2.149 L1.888,4.435 L1.888,4.435 Z M15.64,16.837 L18.737,16.837 L18.737,5.731 L15.64,5.731 L15.64,16.837 L15.64,16.837 Z M6.784,16.837 L14.344,16.837 L14.344,5.731 L6.784,5.731 L6.784,16.837 L6.784,16.837 Z M1.888,16.837 L5.488,16.837 L5.488,5.731 L1.888,5.731 L1.888,16.837 L1.888,16.837 Z" id="path-3"></path>
        <path d="M1.24,0.732 C0.882,0.732 0.592,1.022 0.592,1.38 C0.592,1.739 0.882,2.028 1.24,2.028 L11.248,2.028 C11.607,2.028 11.896,1.739 11.896,1.38 C11.896,1.022 11.607,0.732 11.248,0.732 L1.24,0.732 L1.24,0.732 Z" id="path-5"></path>
        <path d="M1.24,0.612 C0.882,0.612 0.592,0.902 0.592,1.26 C0.592,1.619 0.882,1.908 1.24,1.908 L13.84,1.908 C14.199,1.908 14.488,1.619 14.488,1.26 C14.488,0.902 14.199,0.612 13.84,0.612 L1.24,0.612 L1.24,0.612 Z" id="path-7"></path>
    </defs>
    <g id="Design" stroke="none" stroke-width="1" fill="none" fill-rule="evenodd">
        <g id="yourprofile" transform="translate(-208.000000, -1455.000000)">
            <g id="News" transform="translate(208.000000, 1453.000000)">
                <g id="Page-1" transform="translate(0.000000, 1.000000)">
                    <g id="Group-3" transform="translate(0.000000, 0.471600)">
                        <mask id="mask-2" fill="white">
                            <use xlink:href="#path-1"></use>
                        </mask>
                        <g id="Clip-2"></g>
                        <polygon id="Fill-1" fill="#4a4a4a" mask="url(#mask-2)" points="-5 37 40.714 37 40.714 -4.472 -5 -4.472"></polygon>
                    </g>
                    <g id="Group-6" transform="translate(2.000000, 9.471600)">
                        <mask id="mask-4" fill="white">
                            <use xlink:href="#path-3"></use>
                        </mask>
                        <g id="Clip-5"></g>
                        <polygon id="Fill-4" fill="#4a4a4a" mask="url(#mask-4)" points="-4.408 23.134 25.033 23.134 25.033 -4.147 -4.408 -4.147"></polygon>
                    </g>
                    <g id="Group-9" transform="translate(2.000000, 3.471600)">
                        <mask id="mask-6" fill="white">
                            <use xlink:href="#path-5"></use>
                        </mask>
                        <g id="Clip-8"></g>
                        <polygon id="Fill-7" fill="#4a4a4a" mask="url(#mask-6)" points="-4.408 7.028 16.896 7.028 16.896 -4.268 -4.408 -4.268"></polygon>
                    </g>
                    <g id="Group-12" transform="translate(2.000000, 6.471600)">
                        <mask id="mask-8" fill="white">
                            <use xlink:href="#path-7"></use>
                        </mask>
                        <g id="Clip-11"></g>
                        <polygon id="Fill-10" fill="#4a4a4a" mask="url(#mask-8)" points="-4.408 6.909 19.488 6.909 19.488 -4.387 -4.408 -4.387"></polygon>
                    </g>
                </g>
            </g>
        </g>
    </g>
</svg>