<?xml version="1.0" encoding="UTF-8" standalone="no"?>
<svg width="25px" height="25px" viewBox="0 0 25 25" version="1.1" xmlns="http://www.w3.org/2000/svg" xmlns:xlink="http://www.w3.org/1999/xlink">
    <!-- Generator: sketchtool 3.8.1 (29687) - http://www.bohemiancoding.com/sketch -->
    <title>7AE6B6DB-E958-4FE0-BE06-1CFF276CF08D</title>
    <desc>Created with sketchtool.</desc>
    <defs></defs>
    <g id="Design" stroke="none" stroke-width="1" fill="none" fill-rule="evenodd">
        <g id="yourprofile" transform="translate(-270.000000, -493.000000)">
            <g id="google+" transform="translate(270.000000, 493.000000)">
                <g id="Icon">
                    <path d="M12.5,0 C5.5965,0 0,5.5965 0,12.5 C0,19.4035 5.5965,25 12.5,25 C19.4035,25 25,19.4035 25,12.5 C25,5.5965 19.4035,0 12.5,0" id="Fill-1" fill="#000000"></path>
                    <path d="M12.5,1.5 C6.425,1.5 1.5,6.425 1.5,12.5 C1.5,18.575 6.425,23.5 12.5,23.5 C18.575,23.5 23.5,18.575 23.5,12.5 C23.5,6.425 18.575,1.5 12.5,1.5" id="Fill-3" fill="#FFFFFF"></path>
                    <path d="M19.12255,11.05495 L19.12255,13.69445 L18.00205,13.69445 L18.00205,11.05495 L15.38655,11.05495 L15.38655,9.95645 L18.00205,9.95645 L18.00205,7.34045 L19.12255,7.34045 L19.12255,9.95645 L21.11855,9.95645 C21.26605,10.31295 21.39355,10.67945 21.50005,11.05495 L19.12255,11.05495 Z" id="Fill-5" fill="#000000"></path>
                    <path d="M5.8628,18.6377 C7.3198,17.7462 9.2823,17.6277 10.3433,17.5607 C10.0148,17.1402 9.6358,16.6942 9.6358,15.9617 C9.6358,15.5662 9.7538,15.3312 9.8718,15.0537 C9.6108,15.0787 9.3578,15.1042 9.1223,15.1042 C6.6378,15.1042 5.2313,13.2527 5.2313,11.4267 C5.2313,10.3497 5.7278,9.1532 6.7303,8.2872 C8.0693,7.1877 9.6613,7.0002 10.9248,7.0002 L15.7503,7.0002 L14.2513,7.8422 L12.8028,7.8422 C13.3418,8.2872 14.4618,9.2237 14.4618,11.0062 C14.4618,12.7397 13.4768,13.5557 12.4993,14.3302 C12.1878,14.6327 11.8423,14.9607 11.8423,15.4742 C11.8423,15.9872 12.1878,16.2732 12.4488,16.4837 L13.2908,17.1402 C14.3273,17.9987 15.2618,18.7977 15.2618,20.4132 C15.2618,21.4787 14.7648,22.5477 13.7948,23.3687 C13.2728,23.4537 12.7378,23.4987 12.1923,23.5002 C13.1768,23.0682 13.6868,22.2792 13.6868,21.3307 C13.6868,20.1357 12.9208,19.5047 11.1348,18.2337 C10.9498,18.2172 10.8318,18.2172 10.5963,18.2172 C10.3853,18.2172 9.1223,18.2592 8.1368,18.5872 C7.6233,18.7727 6.1238,19.3362 6.1238,21.0022 C6.1238,21.1837 6.1433,21.3587 6.1808,21.5282 C3.7113,19.6977 4.7813,19.9562 4.4998,19.9562 C4.7813,19.4837 5.2168,19.0197 5.8628,18.6377" id="Fill-7" fill="#000000"></path>
                    <path d="M9.4507,7.77245 C8.8442,7.77245 8.1872,8.07695 7.8082,8.54545 C7.4127,9.03695 7.2947,9.66845 7.2947,10.27395 C7.2947,11.84745 8.2042,14.44745 10.2257,14.44745 C10.8067,14.44745 11.4382,14.16095 11.8172,13.79095 C12.3567,13.25295 12.3987,12.50395 12.3987,12.08295 C12.3987,10.39195 11.3962,7.77245 9.4507,7.77245" id="Fill-9" fill="#FFFFFF"></path>
                </g>
            </g>
        </g>
    </g>
</svg>