<?xml version="1.0" encoding="UTF-8" standalone="no"?>
<svg width="32px" height="32px" viewBox="0 0 32 32" version="1.1" xmlns="http://www.w3.org/2000/svg" xmlns:xlink="http://www.w3.org/1999/xlink">
    <!-- Generator: sketchtool 3.8.1 (29687) - http://www.bohemiancoding.com/sketch -->
    <title>43BA5780-B974-4395-9D26-A909AEFC605F</title>
    <desc>Created with sketchtool.</desc>
    <defs></defs>
    <g id="Design" stroke="none" stroke-width="1" fill="none" fill-rule="evenodd">
        <g id="yourprofile" transform="translate(-316.000000, -134.000000)" fill="#FFE22E">
            <g id="Pizza" transform="translate(316.000000, 134.000000)">
                <g id="icon">
                    <path d="M29.288489,22.1674009 C29.2168218,22.2982473 29.1053039,22.4008585 28.9648161,22.4511311 C28.8111977,22.5069131 28.6472953,22.4979145 28.5006554,22.4277165 L28.2299638,22.3003133 C27.9283742,22.1563822 27.7982164,21.7934095 27.9414129,21.4904425 C27.9593641,21.4511426 27.9620729,21.4084912 27.9724488,21.365794 C27.9917314,21.3361813 28.0185894,21.3127667 28.0330055,21.2797108 C29.2423484,18.5174726 29.4744287,15.5210422 28.7044545,12.6162961 C27.9882881,9.91948121 26.4566496,7.6117165 24.428575,5.90726887 C24.4168677,5.89698479 24.4127357,5.88183415 24.4010284,5.87219283 C24.3872551,5.86117418 24.3713699,5.85841951 24.3576425,5.84877819 C22.0519897,3.93910818 19.1127185,2.80763042 15.9634961,2.80763042 C14.8243971,2.80763042 13.683324,2.95707088 12.5711288,3.2518198 C8.67672425,4.28614978 5.6568792,6.97268063 4.05022209,10.3539834 C4.03993802,10.3705572 4.02409871,10.3815759 4.01721205,10.3987925 C4.01101406,10.4104999 4.01239139,10.4228499 4.00821349,10.4352459 C2.74593515,13.1389934 2.38438565,16.281375 3.20734118,19.3838141 C4.74031105,25.158276 9.9789911,29.1931225 15.9462795,29.1931225 L15.9476568,29.1931225 C17.086664,29.1931225 18.2270944,29.0436821 19.3330915,28.7496677 C19.3641274,28.7420924 19.3923627,28.7324052 19.4033354,28.7276304 C19.412334,28.7248758 19.4178433,28.7186319 19.426796,28.7159231 C19.7470255,28.640124 20.0692752,28.829507 20.154027,29.1456505 L20.230423,29.4383334 C20.3165062,29.7620063 20.1229911,30.0932545 19.7993182,30.1799805 C19.7738835,30.1875558 19.7546009,30.2041297 19.7304516,30.2144138 L19.7242996,30.1999977 C11.8955019,32.2749016 3.83471564,27.5995501 1.75769986,19.7694669 C-0.320693257,11.9400264 4.35805567,3.87988293 12.1881848,1.80217848 C20.0155593,-0.274837303 28.0764373,4.4025802 30.1548304,12.2327093 C31.0321446,15.5376161 30.7236683,19.0663392 29.288489,22.1674009 L29.288489,22.1674009 Z M4.92276155,11.5220063 L14.8361504,16.1725659 L7.69744161,24.5908155 C6.16102841,23.1143162 5.00471277,21.2252603 4.42898824,19.0600953 C3.73967977,16.4618055 3.97864677,13.8379432 4.92276155,11.5220063 L4.92276155,11.5220063 Z M12.2942852,4.6677165 L14.9979409,14.8530824 L5.45858938,10.3781326 C6.87310875,7.74123156 9.26346743,5.64493314 12.2942852,4.6677165 L12.2942852,4.6677165 Z M16.2217458,14.5396935 L13.5118003,4.3323363 C14.3217171,4.1615472 15.1432494,4.07270933 15.9641389,4.07270933 C18.6017286,4.07270933 21.076839,4.94795753 23.0842537,6.44929469 L16.2217458,14.5396935 Z M27.4828075,12.9413463 C28.1232666,15.3558083 27.9972407,17.8405142 27.1226353,20.166827 L17.1507558,15.3978169 L24.0573842,7.25498766 C25.6722594,8.75283558 26.8878003,10.7004281 27.4828075,12.9413463 L27.4828075,12.9413463 Z M18.4716166,27.6574439 C17.6383311,27.8378743 16.7926496,27.9294669 15.9476568,27.9294669 L15.9462795,27.9294669 C13.2329366,27.9294669 10.6855621,27.0045429 8.64848895,25.4226778 L15.6776999,17.1346319 L18.4716166,27.6574439 Z M11.8631805,0.580485509 C3.36022496,2.83724304 -1.72148522,11.5908729 0.535960976,20.0938284 C2.42979168,27.2304253 8.9005406,31.9574267 15.9593641,31.9574267 C17.3104803,31.9574267 18.683037,31.7831943 20.0486611,31.4223793 L20.0459065,31.4120034 C20.0720758,31.4079174 20.0982451,31.4079174 20.1250571,31.4017194 C21.1209136,31.1352057 21.7159208,30.1097825 21.4521159,29.1153492 L21.375674,28.8226663 C21.1670083,28.040342 20.4873412,27.5134669 19.7236109,27.4480895 L16.8608275,16.6594066 L26.6660499,21.349266 C26.4849308,22.1825515 26.888489,23.0619317 27.6900958,23.4427638 L27.9606956,23.5708557 C28.2148132,23.6921067 28.4868821,23.7526634 28.7602824,23.7526634 C28.9717027,23.7526634 29.1851891,23.7155214 29.3896769,23.6432115 C29.8600356,23.4737997 30.236093,23.1335989 30.4509108,22.6818341 C30.4584861,22.6666835 30.4571088,22.6487323 30.4639954,22.6315156 C31.9970112,19.2797796 32.3233928,15.4763248 31.3764775,11.9097251 C29.1190772,3.40539225 20.3660901,-1.67287461 11.8631805,0.580485509 L11.8631805,0.580485509 Z" id="Fill-1"></path>
                    <path d="M22.6531811,12.3711128 C22.9684981,12.3711128 23.2240849,12.6266996 23.2240849,12.9420166 C23.2240849,13.2573337 22.9684981,13.5129664 22.6531811,13.5129664 C22.3379099,13.5129664 22.0822772,13.2573337 22.0822772,12.9420166 C22.0822772,12.6266996 22.3379099,12.3711128 22.6531811,12.3711128" id="Fill-4"></path>
                    <path d="M18.4192735,7.26258594 C18.7345446,7.26258594 18.9901773,7.51817274 18.9901773,7.83348981 C18.9901773,8.14880689 18.7345446,8.40439369 18.4192735,8.40439369 C18.1039564,8.40439369 17.8483237,8.14880689 17.8483237,7.83348981 C17.8483237,7.51817274 18.1039564,7.26258594 18.4192735,7.26258594" id="Fill-6"></path>
                    <path d="M6.69819225,14.8255357 C7.01346341,14.8255357 7.26909613,15.0811225 7.26909613,15.3964396 C7.26909613,15.7117567 7.01346341,15.9673435 6.69819225,15.9673435 C6.38287518,15.9673435 6.12724247,15.7117567 6.12724247,15.3964396 C6.12724247,15.0811225 6.38287518,14.8255357 6.69819225,14.8255357" id="Fill-8"></path>
                    <path d="M12.2646405,11.1659478 C12.5799575,11.1659478 12.8355902,11.4215346 12.8355902,11.7368516 C12.8355902,12.0521687 12.5799575,12.3077555 12.2646405,12.3077555 C11.9493693,12.3077555 11.6937366,12.0521687 11.6937366,11.7368516 C11.6937366,11.4215346 11.9493693,11.1659478 12.2646405,11.1659478" id="Fill-10"></path>
                    <path d="M14.846462,23.3587604 C15.1617331,23.3587604 15.4174118,23.6143472 15.4174118,23.9297102 C15.4174118,24.2449813 15.1617331,24.5005681 14.846462,24.5005681 C14.5311908,24.5005681 14.2755581,24.2449813 14.2755581,23.9297102 C14.2755581,23.6143472 14.5311908,23.3587604 14.846462,23.3587604" id="Fill-12"></path>
                    <path d="M9.87291363,9.59579914 L11.5215793,9.64813773 C11.5291547,9.6488264 11.5360872,9.6488264 11.5422393,9.6488264 C11.8817515,9.6488264 12.1627271,9.37886944 12.173103,9.03729125 C12.1847644,8.68813773 11.9113641,8.39683214 11.5622106,8.38581349 L9.91354491,8.33347489 C9.90601549,8.33278623 9.89977159,8.33278623 9.89219627,8.33278623 C9.55268407,8.33278623 9.27313171,8.60274319 9.26137848,8.94432138 C9.25104849,9.29347489 9.52513745,9.58546915 9.87291363,9.59579914" id="Fill-14"></path>
                    <path d="M9.32131076,19.0387696 C9.42254462,19.0993722 9.53475122,19.1276534 9.64498364,19.1276534 C9.85980143,19.1276534 10.0692017,19.0181096 10.1883409,18.8211512 L11.2647254,17.0244224 C11.4437326,16.7255415 11.3459879,16.3364912 11.0464184,16.1580809 C10.7474915,15.9790278 10.3590841,16.0768184 10.1800769,16.3756993 L9.1036924,18.1717395 C8.92395065,18.4706204 9.02105251,18.8583392 9.32131076,19.0387696" id="Fill-16"></path>
                    <path d="M13.3617079,22.5076109 C13.2714927,22.171542 12.9244052,21.9710944 12.589025,22.0592436 C12.2508901,22.1488161 12.0497997,22.4945263 12.1400149,22.8312838 L12.7363994,25.0804201 C12.811464,25.3641963 13.066959,25.5507788 13.3458686,25.5507788 C13.4002732,25.5507788 13.4546778,25.5445808 13.5083937,25.5301188 C13.8451512,25.4406382 14.0462416,25.0942393 13.9574037,24.7574818 L13.3617079,22.5076109 Z" id="Fill-18"></path>
                    <path d="M23.0223059,16.3826089 C23.1421337,16.4886634 23.2915742,16.5416907 23.4410146,16.5416907 C23.6145584,16.5416907 23.7887908,16.4693808 23.9134393,16.3281584 L25.1564809,14.9219489 C25.3885613,14.6609446 25.3637693,14.2615185 25.1020763,14.0307696 C24.8403834,13.8001125 24.4409572,13.8241699 24.2102542,14.0859088 L22.9672126,15.4921182 C22.7365096,15.7524339 22.7606129,16.1525486 23.0223059,16.3826089" id="Fill-20"></path>
                    <path d="M15.69353,9.24043845 L16.5619374,11.2795776 C16.6645027,11.519922 16.8973176,11.6638531 17.14386,11.6638531 C17.2264999,11.6638531 17.3098284,11.6480138 17.3904023,11.6128918 C17.7126519,11.4758473 17.8621383,11.1053452 17.7244052,10.784427 L16.855309,8.7452878 C16.7182646,8.42368092 16.3470737,8.27424046 16.0261555,8.4119736 C15.705926,8.54901808 15.5564855,8.91952023 15.69353,9.24043845" id="Fill-22"></path>
                    <path d="M19.5589785,14.3537813 L19.7304562,14.9990611 C19.8055667,15.2821027 20.0610617,15.4680884 20.3399713,15.4680884 C20.39433,15.4680884 20.4487805,15.4618445 20.5024964,15.4473825 C20.8406313,15.3571673 21.0403443,15.0121458 20.9514605,14.6746996 L20.7800287,14.0287311 C20.6898135,13.6919736 20.3434146,13.4929492 20.0066112,13.5804098 C19.6698996,13.670625 19.4687633,14.0163352 19.5589785,14.3537813" id="Fill-24"></path>
                </g>
            </g>
        </g>
    </g>
</svg>