<?xml version="1.0" encoding="UTF-8" standalone="no"?>
<svg width="32px" height="45px" viewBox="0 0 32 45" version="1.1" xmlns="http://www.w3.org/2000/svg" xmlns:xlink="http://www.w3.org/1999/xlink">
    <!-- Generator: sketchtool 3.8.1 (29687) - http://www.bohemiancoding.com/sketch -->
    <title>C85A86F1-1AC6-4937-826C-F0E9BA54443E</title>
    <desc>Created with sketchtool.</desc>
    <defs></defs>
    <g id="Design" stroke="none" stroke-width="1" fill="none" fill-rule="evenodd">
        <g id="yourprofile" transform="translate(-55.000000, -126.000000)" fill="#FFFFFF">
            <g id="watchlist_profile" transform="translate(55.000000, 126.000000)">
                <g id="icon">
                    <path d="M14.3127951,26.7992797 L25.3719096,26.7992797 C25.9627975,26.7992797 26.4404231,26.3216542 26.4404231,25.7307663 C26.4404231,25.1398783 25.9627975,24.6622528 25.3719096,24.6622528 L14.3127951,24.6622528 C13.7229756,24.6622528 13.2442816,25.1398783 13.2442816,25.7307663 C13.2442816,26.3216542 13.7229756,26.7992797 14.3127951,26.7992797" id="Fill-1"></path>
                    <path d="M23.4143573,29.7825623 C23.4143573,29.1916743 22.9367317,28.7140488 22.3458438,28.7140488 L14.3127594,28.7140488 C13.72294,28.7140488 13.244246,29.1916743 13.244246,29.7825623 C13.244246,30.3734502 13.72294,30.8510757 14.3127594,30.8510757 L22.3458438,30.8510757 C22.9356632,30.8510757 23.4143573,30.3734502 23.4143573,29.7825623" id="Fill-3"></path>
                    <path d="M10.7151173,24.9753628 L7.6645113,28.0270373 L6.46029661,26.8228227 C6.04243661,26.4049627 5.36720732,26.4049627 4.94941855,26.8228227 C4.53155855,27.2406114 4.53155855,27.9158407 4.94941855,28.3337007 L6.90900104,30.2932832 C7.10995281,30.494235 7.381284,30.6064289 7.6645113,30.6064289 C7.94759614,30.6064289 8.22013831,30.494235 8.4198791,30.2932832 L12.2270639,26.4862409 C12.6448526,26.0684521 12.6448526,25.3930804 12.2270639,24.9753628 C11.8092039,24.5575741 11.1328348,24.5575741 10.7151173,24.9753628" id="Fill-5"></path>
                    <path d="M14.3127951,13.687558 L25.3719096,13.687558 C25.9627975,13.687558 26.4404231,13.2088639 26.4404231,12.6190445 C26.4404231,12.029225 25.9627975,11.550531 25.3719096,11.550531 L14.3127951,11.550531 C13.7229756,11.550531 13.2442816,12.029225 13.2442816,12.6190445 C13.2442816,13.2088639 13.7229756,13.687558 14.3127951,13.687558" id="Fill-7"></path>
                    <path d="M14.3127951,17.7393468 L22.3458794,17.7393468 C22.9366961,17.7393468 23.4143929,17.2606528 23.4143929,16.6708333 C23.4143929,16.0810139 22.9366961,15.6023199 22.3458794,15.6023199 L14.3127951,15.6023199 C13.7229756,15.6023199 13.2442816,16.0810139 13.2442816,16.6708333 C13.2442816,17.2606528 13.7229756,17.7393468 14.3127951,17.7393468" id="Fill-9"></path>
                    <path d="M5.92816265,17.1816113 C6.13652278,17.3899714 6.41006223,17.4946857 6.68353045,17.4946857 C6.9570699,17.4946857 7.23068058,17.3899714 7.43904071,17.1816113 L8.58655296,16.0340278 L9.73420767,17.1816113 C9.94249656,17.3899714 10.216036,17.4946857 10.4896467,17.4946857 C10.7631861,17.4946857 11.0367256,17.3899714 11.2450857,17.1816113 C11.6628745,16.7638225 11.6628745,16.088522 11.2450857,15.6707332 L10.097431,14.5231497 L11.2450857,13.3744977 C11.6628745,12.956709 11.6628745,12.2803399 11.2450857,11.8636197 C10.8272257,11.4458309 10.1519964,11.4458309 9.73420767,11.8636197 L8.58655296,13.0122717 L7.43904071,11.8646882 C7.02125194,11.4468994 6.34595142,11.4468994 5.92816265,11.8646882 C5.51037388,12.282477 5.51037388,12.9577775 5.92816265,13.3755663 L7.07567489,14.5231497 L5.92816265,15.6707332 C5.51137116,16.088522 5.51137116,16.764891 5.92816265,17.1816113" id="Fill-11"></path>
                    <path d="M28.9396903,42.1517455 L2.13702696,42.1517455 L2.13702696,4.49405372 L3.87984368,2.75237675 L6.05099184,4.92252763 C6.46885184,5.33924789 7.14522088,5.33924789 7.5618699,4.92252763 L9.70324215,2.78122661 L11.9310215,5.00800871 C12.3488103,5.42579748 13.024182,5.42579748 13.4418996,5.00800871 L15.7274499,2.72245837 L17.7245016,4.72164709 C17.9254534,4.92252763 18.1967846,5.03472154 18.4810092,5.03472154 C18.7641652,5.03472154 19.0366362,4.92252763 19.2364482,4.72164709 L21.3083671,2.65086797 L23.5361464,4.87871858 C23.936839,5.27941113 24.6463319,5.27941113 25.0470245,4.87871858 L27.2524363,2.67223824 L28.9385506,4.35835251 L28.9385506,25.919886 L28.9396903,35.9179667 L28.9396903,42.1517455 Z M31.0767173,23.7817906 L31.0767173,3.91598793 C31.0767173,3.63283186 30.9645234,3.36036092 30.7635716,3.1605489 L28.0089439,0.405921148 C27.6082513,0.00522859263 26.8987583,0.00522859263 26.4980658,0.405921148 L24.292654,2.61240148 L22.0648034,0.384550878 C21.6470858,-0.0332378927 20.9717141,-0.0332378927 20.5539965,0.384550878 L18.4832174,2.45533 L16.4839575,0.456141281 C16.2831482,0.255260747 16.0116745,0.143066832 15.7274499,0.143066832 C15.4443651,0.143066832 15.1718229,0.255260747 14.9720821,0.456141281 L12.685392,2.74169162 L10.4576127,0.513841009 C10.0569201,0.113148454 9.34742716,0.113148454 8.9467346,0.513841009 L6.80536235,2.65621054 L4.63521148,0.486059659 C4.21742271,0.0693394014 3.54219342,0.0693394014 3.12433342,0.486059659 L0.31307445,3.29625011 C0.113333663,3.49606213 0,3.76853307 0,4.05168914 L0,43.220259 C0,43.811147 0.478765273,44.2887725 1.06851348,44.2887725 L30.0070641,44.2887725 C30.5980233,44.2887725 31.0755775,43.811147 31.0755775,43.220259 L31.0755775,33.7809397 L31.0767173,23.7817906 Z" id="Fill-13"></path>
                </g>
            </g>
        </g>
    </g>
</svg>