<?xml version="1.0" encoding="UTF-8" standalone="no"?>
<svg width="43px" height="24px" viewBox="0 0 43 24" version="1.1" xmlns="http://www.w3.org/2000/svg" xmlns:xlink="http://www.w3.org/1999/xlink">
    <!-- Generator: sketchtool 3.8.1 (29687) - http://www.bohemiancoding.com/sketch -->
    <title>AAC3D07B-B3A5-4C73-88E8-B5ED976405DA</title>
    <desc>Created with sketchtool.</desc>
    <defs></defs>
    <g id="Design" stroke="none" stroke-width="1" fill="none" fill-rule="evenodd">
        <g id="Create_challange_noname" transform="translate(-158.000000, -543.000000)" fill="#000000">
            <g id="Page-1" transform="translate(158.000000, 543.000000)">
                <path d="M1.71428571,4.28571429 L1.71428571,4.28571429 L1.71428571,19.7142857 C1.71428571,21.1714286 2.82857143,22.2857143 4.28571429,22.2857143 L38.5714286,22.2857143 C40.0285714,22.2857143 41.1428571,21.1714286 41.1428571,19.7142857 L41.1428571,4.28571429 C41.1428571,2.82857143 40.0285714,1.71428571 38.5714286,1.71428571 L4.28571429,1.71428571 C2.82857143,1.71428571 1.71428571,2.82857143 1.71428571,4.28571429 M0,4.28571429 C0,1.88571429 1.88571429,0 4.28571429,0 L38.5714286,0 C40.9714286,0 42.8571429,1.88571429 42.8571429,4.28571429 L42.8571429,19.7142857 C42.8571429,22.1142857 40.9714286,24 38.5714286,24 L4.28571429,24 C1.88571429,24 0,22.1142857 0,19.7142857 L0,4.28571429" id="Fill-1"></path>
                <path d="M5.14285714,5.14285714 L5.14285714,5.14285714 L5.14285714,18.8571429 L18.8571429,18.8571429 L18.8571429,5.14285714 L5.14285714,5.14285714 Z M3.42857143,5.14285714 C3.42857143,4.2 4.2,3.42857143 5.14285714,3.42857143 L18.8571429,3.42857143 C19.8,3.42857143 20.5714286,4.2 20.5714286,5.14285714 L20.5714286,18.8571429 C20.5714286,19.8 19.8,20.5714286 18.8571429,20.5714286 L5.14285714,20.5714286 C4.2,20.5714286 3.42857143,19.8 3.42857143,18.8571429 L3.42857143,5.14285714 L3.42857143,5.14285714 Z" id="Fill-3"></path>
            </g>
        </g>
    </g>
</svg>