<?xml version="1.0" encoding="UTF-8" standalone="no"?>
<svg width="43px" height="24px" viewBox="0 0 43 24" version="1.1" xmlns="http://www.w3.org/2000/svg" xmlns:xlink="http://www.w3.org/1999/xlink">
    <!-- Generator: sketchtool 3.8.1 (29687) - http://www.bohemiancoding.com/sketch -->
    <title>43EFB6E2-B0AF-44BE-9A21-A85B55868D89</title>
    <desc>Created with sketchtool.</desc>
    <defs></defs>
    <g id="Design" stroke="none" stroke-width="1" fill="none" fill-rule="evenodd">
        <g id="Create_challange_noname" transform="translate(-158.000000, -585.000000)" fill="#000000">
            <path d="M197.257143,607.2 L198.971429,605.485714 C198.8,606.257143 198.114286,606.942857 197.257143,607.2 L197.257143,607.2 Z M162.285714,586.714286 L162.542857,586.714286 L159.714286,589.542857 L159.714286,589.285714 C159.714286,587.828571 160.828571,586.714286 162.285714,586.714286 L162.285714,586.714286 Z M188.6,605.571429 L189.971429,605.571429 L188.257143,607.285714 L186.885714,607.285714 L188.6,605.571429 Z M199.057143,588.771429 L198.8,589.028571 L197.428571,590.4 L197.428571,590.142857 C197.428571,589.8 197.342857,589.542857 197.171429,589.285714 L198.628571,587.828571 C198.885714,588.085714 198.971429,588.428571 199.057143,588.771429 L199.057143,588.771429 Z M197.428571,601.885714 L199.142857,600.171429 L199.142857,601.542857 L197.428571,603.257143 L197.428571,601.885714 Z M199.142857,591.257143 L198.885714,591.514286 L197.428571,592.971429 L197.428571,591.6 L199.142857,589.885714 L199.142857,591.257143 Z M199.142857,593.828571 L198.885714,594.085714 L197.428571,595.542857 L197.428571,594.171429 L199.142857,592.457143 L199.142857,593.828571 Z M199.142857,596.4 L198.885714,596.657143 L197.428571,598.114286 L197.428571,596.742857 L199.142857,595.028571 L199.142857,596.4 Z M199.142857,598.971429 L198.885714,599.228571 L197.428571,600.685714 L197.428571,599.314286 L199.142857,597.6 L199.142857,598.971429 Z M182,603.857143 L195.714286,603.857143 L195.714286,590.142857 L182,590.142857 L182,603.857143 Z M198.028571,587.228571 L196.571429,588.685714 C196.314286,588.514286 196.057143,588.428571 195.714286,588.428571 L195.457143,588.428571 L197.085714,586.8 C197.428571,586.885714 197.771429,586.971429 198.028571,587.228571 L198.028571,587.228571 Z M195.971429,586.714286 L194.257143,588.428571 L192.885714,588.428571 L194.6,586.714286 L195.971429,586.714286 Z M193.4,586.714286 L191.685714,588.428571 L190.314286,588.428571 L192.028571,586.714286 L193.4,586.714286 Z M190.828571,586.714286 L189.114286,588.428571 L187.742857,588.428571 L189.457143,586.714286 L190.828571,586.714286 Z M188.257143,586.714286 L186.542857,588.428571 L185.171429,588.428571 L186.885714,586.714286 L188.257143,586.714286 Z M185.685714,586.714286 L183.971429,588.428571 L182.6,588.428571 L184.314286,586.714286 L185.685714,586.714286 Z M159.714286,604.714286 L159.714286,603.6 L176.6,586.714286 L177.971429,586.714286 L159.714286,604.971429 L159.714286,604.714286 Z M175.4,586.714286 L159.714286,602.4 L159.714286,601.028571 L174.028571,586.714286 L175.4,586.714286 Z M172.828571,586.714286 L159.714286,599.828571 L159.714286,598.457143 L171.457143,586.714286 L172.828571,586.714286 Z M170.257143,586.714286 L159.714286,597.257143 L159.714286,595.885714 L168.885714,586.714286 L170.257143,586.714286 Z M167.685714,586.714286 L159.714286,594.685714 L159.714286,593.314286 L166.314286,586.714286 L167.685714,586.714286 Z M165.114286,586.714286 L159.714286,592.114286 L159.714286,590.742857 L163.742857,586.714286 L165.114286,586.714286 Z M159.971429,605.914286 L179.171429,586.714286 L180.542857,586.714286 L160.657143,606.514286 L160.571429,606.685714 C160.4,606.428571 160.142857,606.171429 159.971429,605.914286 L159.971429,605.914286 Z M162.285714,607.285714 C161.942857,607.285714 161.685714,607.2 161.342857,607.114286 L181.742857,586.714286 L183.114286,586.714286 L181.142857,588.685714 C180.885714,588.857143 180.628571,589.114286 180.457143,589.371429 L162.457143,607.371429 L162.285714,607.371429 L162.285714,607.285714 Z M163.742857,607.285714 L180.285714,590.742857 L180.285714,592.114286 L165.114286,607.285714 L163.742857,607.285714 Z M166.314286,607.285714 L180.285714,593.314286 L180.285714,594.685714 L167.685714,607.285714 L166.314286,607.285714 Z M168.885714,607.285714 L180.285714,595.885714 L180.285714,597.257143 L170.257143,607.285714 L168.885714,607.285714 Z M171.457143,607.285714 L180.285714,598.457143 L180.285714,599.828571 L172.828571,607.285714 L171.457143,607.285714 Z M174.028571,607.285714 L180.285714,601.028571 L180.285714,602.4 L180.028571,602.657143 L175.4,607.285714 L174.028571,607.285714 Z M176.6,607.285714 L180.285714,603.6 L180.285714,603.857143 C180.285714,604.2 180.371429,604.457143 180.542857,604.714286 L177.971429,607.285714 L176.6,607.285714 Z M179.171429,607.285714 L181.142857,605.314286 C181.4,605.485714 181.657143,605.571429 182,605.571429 L182.257143,605.571429 L180.542857,607.285714 L179.171429,607.285714 Z M181.742857,607.285714 L183.457143,605.571429 L184.828571,605.571429 L183.114286,607.285714 L181.742857,607.285714 Z M184.314286,607.285714 L186.028571,605.571429 L187.4,605.571429 L185.685714,607.285714 L184.314286,607.285714 Z M189.457143,607.285714 L191.171429,605.571429 L192.542857,605.571429 L190.828571,607.285714 L189.457143,607.285714 Z M192.028571,607.285714 L193.742857,605.571429 L195.114286,605.571429 L193.4,607.285714 L192.028571,607.285714 Z M199.142857,604.114286 L198.885714,604.371429 L195.971429,607.285714 L194.6,607.285714 L196.571429,605.314286 C196.828571,605.142857 197.085714,604.885714 197.257143,604.628571 L199.228571,602.657143 L199.228571,604.114286 L199.142857,604.114286 Z M196.571429,585 L162.285714,585 C159.885714,585 158,586.885714 158,589.285714 L158,604.714286 C158,607.114286 159.885714,609 162.285714,609 L196.571429,609 C198.971429,609 200.857143,607.114286 200.857143,604.714286 L200.857143,589.285714 C200.857143,586.885714 198.971429,585 196.571429,585 L196.571429,585 Z" id="Page-1"></path>
        </g>
    </g>
</svg>